<svg data-name="Calque 1" version="1.1" viewBox="0 0 53.63 53.22" xmlns="http://www.w3.org/2000/svg">
 <defs>
  <style>.cls-1{fill:#242d3c;}</style>
 </defs>
 <title>Pictos_v3_EXPORT</title>
 <g transform="translate(0 -7.3085)">
  <path class="cls-1" d="m48.71 53.22-43.96-0.22c-1.1735 0.013794-2.319-0.35867-3.26-1.06-0.91683-0.67663-1.4674-1.7407-1.49-2.88l0.16-30.583c0.034329-1.1378 0.59614-2.1949 1.52-2.86 0.94641-0.67658 2.0869-1.0275 3.25-1h0.07l43.93 0.22c1.1735-0.01379 2.319 0.35867 3.26 1.06 0.91924 0.67458 1.4704 1.74 1.49 2.88l-0.16 30.583c-0.04653 1.1236-0.60701 2.1634-1.52 2.82-0.95206 0.69982-2.1087 1.0654-3.29 1.04zm-43.78-36.413c-0.68901-0.01957-1.3659 0.18385-1.93 0.58-0.36922 0.25053-0.60467 0.6552-0.64 1.1l-0.14 30.583c0.032879 0.44577 0.26414 0.85322 0.63 1.11 0.55514 0.40107 1.2252 0.61157 1.91 0.6l43.93 0.22c0.67552 0.01169 1.3373-0.1914 1.89-0.58 0.37144-0.24846 0.60757-0.6543 0.64-1.1l0.17-30.583c-0.03562-0.44493-0.26626-0.8513-0.63-1.11-0.55514-0.40107-1.2252-0.61157-1.91-0.6l-43.91-0.22z"/>
  <rect class="cls-1" x="1.47" y="24.096" width="50.578" height="6.9463"/>
  <g fill="#242d3c">
   <path class="cls-1" d="m7.3244 45.502-0.44817-0.63474-0.37314 0.63474h-0.872l0.81116-1.2573-0.83753-1.1843h0.90648l0.43195 0.60837 0.35894-0.60837h0.872l-0.79089 1.235 0.85578 1.2066z"/>
   <path class="cls-1" d="m9.8897 45.502-0.44817-0.63474-0.37314 0.63474h-0.86592l0.81117-1.2573-0.85172-1.1843h0.90648l0.43195 0.60837 0.35894-0.60837h0.872l-0.79089 1.235 0.85578 1.2066z"/>
   <path class="cls-1" d="m14.952 45.509-0.44817-0.63474-0.37314 0.63474h-0.872l0.81116-1.2573-0.83753-1.1843h0.90648l0.43195 0.60837 0.35894-0.60837h0.872l-0.79089 1.235 0.85578 1.2066z"/>
   <path class="cls-1" d="m17.517 45.509-0.44817-0.63474-0.37314 0.63474h-0.86592l0.81117-1.2573-0.85172-1.1843h0.90648l0.43195 0.60837 0.35894-0.60837h0.872l-0.79089 1.235 0.85578 1.2066z"/>
   <path class="cls-1" d="m20.117 45.509-0.44817-0.63474-0.37314 0.63474h-0.872l0.81116-1.2573-0.83753-1.1843h0.90648l0.43195 0.60837 0.35894-0.60837h0.872l-0.79089 1.235 0.85578 1.2066z"/>
   <path class="cls-1" d="m22.682 45.509-0.44817-0.63474-0.37314 0.63474h-0.86592l0.81117-1.2573-0.85172-1.1843h0.90648l0.43195 0.60837 0.35894-0.60837h0.872l-0.79089 1.235 0.85578 1.2066z"/>
  </g>
 </g>
</svg>
