<svg version="1.1" id="Calque_1" xmlns="http://www.w3.org/2000/svg" xmlns:xlink="http://www.w3.org/1999/xlink" x="0px" y="0px" viewBox="0 0 63.72 64.25" style="enable-background:new 0 0 63.72 64.25;" xml:space="preserve"><defs><style type="text/css">.st0{fill:#242d3c;}</style></defs><g><circle class="st0" cx="32.36" cy="8.36" r="8.36"/><path class="st0" d="M47.97,32.75H46v-0.71c0-7.53-6.11-13.64-13.64-13.64s-13.64,6.11-13.64,13.64v0.71h-2.97 C7.07,32.75,0,39.82,0,48.5s7.07,15.75,15.75,15.75h32.22c8.68,0,15.75-7.07,15.75-15.75S56.66,32.75,47.97,32.75z M47.97,61.75 H15.75C8.44,61.75,2.5,55.81,2.5,48.5s5.94-13.25,13.25-13.25h32.22c7.31,0,13.25,5.94,13.25,13.25S55.28,61.75,47.97,61.75z"/><ellipse transform="matrix(0.7071 -0.7071 0.7071 0.7071 -20.4798 47.5573)" class="st0" cx="47.17" cy="48.5" rx="9.26" ry="9.26"/></g></svg>
