<svg xmlns="http://www.w3.org/2000/svg"
   id="Calque_1"
   data-name="Calque 1"
   viewBox="0 0 48.1 47.9"
   >
  <defs>
    <style>.cls-1{fill:#242d3c;}</style>
  </defs>
  <title>Pictos_v3_EXPORT</title>
  <path class="cls-1" d="M35.19,2.22l8.45,4.86-8.45,4.85H2.62V2.22H35.19M35.78,0H.39V14.16H35.78L48.1,7.08,35.78,0Z" />
  <path class="cls-1" d="M34.31,13.35a1.12,1.12,0,0,1-1.11-1.12V1.11a1.12,1.12,0,0,1,2.23,0V12.23A1.12,1.12,0,0,1,34.31,13.35Z" />
  <path class="cls-1" d="M5.4,13.35a1.11,1.11,0,0,1-1.11-1.12V1.11a1.11,1.11,0,1,1,2.22,0V12.23A1.12,1.12,0,0,1,5.4,13.35Z" />
  <polygon class="cls-1" points="46.44 7.79 40.88 4.58 40.88 11 46.44 7.79" />
  <path class="cls-1" d="m 34.895001,18.684068 8.45,4.86 -8.45,4.85 h -32.57 v -9.71 h 32.57 m 0.59,-2.22 H 0.09500102 v 14.16 H 35.485001 l 12.32,-7.08 z" />
  <path class="cls-1" d="m 34.015001,29.814068 a 1.12,1.12 0 0 1 -1.11,-1.12 v -11.12 a 1.12,1.12 0 0 1 2.23,0 v 11.12 a 1.12,1.12 0 0 1 -1.12,1.12 z" />
  <path class="cls-1" d="m 5.105001,29.814068 a 1.11,1.11 0 0 1 -1.11,-1.12 v -11.12 a 1.11,1.11 0 1 1 2.22,0 v 11.12 a 1.12,1.12 0 0 1 -1.11,1.12 z" />
  <polygon
     transform="translate(-0.29499898,16.464068)"
     class="cls-1"
     points="40.88,11 46.44,7.79 40.88,4.58 " />
  <path
     class="cls-1"
     d="m 34.870377,35.9485 8.45,4.86 -8.45,4.85 H 2.3003769 v -9.71 H 34.870377 m 0.59,-2.22 H 0.07037682 v 14.16 H 35.460377 l 12.32,-7.08 z"
     />
  <path
     class="cls-1"
     d="m 33.990377,47.0785 a 1.12,1.12 0 0 1 -1.11,-1.12 v -11.12 a 1.12,1.12 0 0 1 2.23,0 v 11.12 a 1.12,1.12 0 0 1 -1.12,1.12 z"
      />
  <path
     class="cls-1"
     d="m 5.0803768,47.0785 a 1.11,1.11 0 0 1 -1.1099999,-1.12 v -11.12 a 1.11,1.11 0 1 1 2.2199999,0 v 11.12 a 1.12,1.12 0 0 1 -1.11,1.12 z"
      />
  <polygon
     transform="translate(-0.31962318,33.7285)"
     class="cls-1"
     points="40.88,11 46.44,7.79 40.88,4.58 "
      />
</svg>
