<svg version="1.1" xmlns="http://www.w3.org/2000/svg" xmlns:xlink="http://www.w3.org/1999/xlink" width="70" height="70" viewBox="0,0,70,70" xmlns:odoo-icon="https://ivantodorovich.github.io/odoo-icon" odoo-icon:version="1.0" odoo-icon:size="70" odoo-icon:icon-size="0.65" odoo-icon:icon-color="#FFFFFF" odoo-icon:icon-flat-shadow-angle="135" odoo-icon:background-color="#c0ca33" odoo-icon:background-gradient="0.2" odoo-icon:box-radius="3.5" odoo-icon:odoo-version="16.0"><defs><linearGradient x1="70" y1="0" x2="0" y2="70" gradientUnits="userSpaceOnUse" id="color-1"><stop offset="0" stop-color="#f3fd66"/><stop offset="1" stop-color="#c0ca33"/></linearGradient></defs><g fill="none" fill-rule="nonzero" stroke="none" stroke-width="1" stroke-linecap="butt" stroke-linejoin="miter" stroke-miterlimit="10" stroke-dasharray="" stroke-dashoffset="0" font-family="none" font-weight="none" font-size="none" text-anchor="none" style="mix-blend-mode: normal"><path d="M3.5,70c-1.933,0 -3.5,-1.567 -3.5,-3.5v-63c0,-1.933 1.567,-3.5 3.5,-3.5h63c1.933,0 3.5,1.567 3.5,3.5v63c0,1.933 -1.567,3.5 -3.5,3.5z" id="box" fill="url(#color-1)"/><path d="M65,1h-61c-1.95033,0 -3.2667,0.63396 -3.9491,1.90189c0.28378,-1.64806 1.72001,-2.90189 3.4491,-2.90189h63c1.72965,0 3.16627,1.25466 3.44938,2.90352c-0.69803,-1.26902 -2.34782,-1.90352 -4.94938,-1.90352z" id="topBoxShadow" fill="#ffffff" opacity="0.383"/><path d="M4,69h61c2.66667,0 4.33333,-1 5,-3v0.5c0,1.933 -1.567,3.5 -3.5,3.5h-63c-1.933,0 -3.5,-1.567 -3.5,-3.5c0,-0.1611 0,-0.32777 0,-0.5c0.66667,2 2,3 4,3z" id="bottomBoxShadow" fill="#000000" opacity="0.383"/><path d="M40.44506,22.46442h13.01429l0.81272,0.27091c0.93191,0.31425 1.44122,0.60683 2.05888,1.21366c0.67185,0.65017 1.09446,1.32202 1.39787,2.23226l0.27091,0.82355v11.7898c0,12.8951 0.03251,12.23409 -0.61766,13.5236c-0.3576,0.70435 -1.56041,1.87467 -2.30811,2.25393c-1.28951,0.63934 -0.57432,0.61766 -18.85501,0.61766c-18.22651,0 -17.55467,0.02167 -18.83334,-0.60683c-0.80188,-0.3901 -1.86383,-1.41954 -2.26477,-2.17808c-0.65017,-1.21366 -0.68268,-1.48456 -0.68268,-5.1472v-3.33755h3.99856l0.03251,3.10999c0.03251,2.88243 0.04334,3.1425 0.24923,3.43508c0.43345,0.63934 -0.55265,0.60683 17.50049,0.60683c18.05313,0 17.06704,0.03251 17.50049,-0.60683c0.20589,-0.30341 0.21672,-0.57432 0.24923,-7.33612l0.03251,-7.01103h-13.5561v-5.52647h13.54527v-1.33285c0,-1.56041 -0.10836,-2.02637 -0.55265,-2.3948l-0.33592,-0.28174h-12.6567zM25.23102,18.81262l10.19688,0.02167l0.53097,0.32509c0.68268,0.42261 1.14864,1.17031 1.21366,1.92885c0.03251,0.48763 0.01084,0.59599 -0.21672,0.80188l-0.26007,0.24923l-10.42444,0.02167l-10.4136,0.03251l-0.2384,0.2384c-0.30341,0.30341 -0.30341,0.85606 0.01084,1.15947c0.21672,0.22756 0.24923,0.22756 10.86872,0.28174c10.18604,0.05418 10.66284,0.06502 10.96625,0.26007c0.53097,0.32509 0.92108,0.73686 1.17031,1.20282c0.2384,0.43345 0.2384,0.49847 0.27091,7.42281c0.02167,4.83295 0,7.16274 -0.08669,7.54201c-0.16254,0.78021 -0.63934,1.3762 -1.38704,1.74463l-0.61766,0.30341h-22.21424l-0.59599,-0.28174c-0.7477,-0.3576 -1.32202,-0.94275 -1.71212,-1.71212l-0.29258,-0.60683v-18.3132l0.24923,-0.53097c0.48763,-1.08362 1.19198,-1.67961 2.28644,-1.97219c0.37927,-0.10836 2.83909,-0.13003 10.69534,-0.1192zM32.20954,33.04057c0,0.58516 0.1192,0.88857 0.48763,1.26784c0.63934,0.63934 1.6146,0.6285 2.30811,-0.01084c0.82355,-0.76937 0.59599,-2.15641 -0.43345,-2.68738c-1.0186,-0.53097 -2.36229,0.29258 -2.36229,1.43038z" id="shadow" fill="#000000" opacity="0.3"/><path d="M53.45936,20.46442l0.81272,0.27091c0.93191,0.31425 1.44122,0.60683 2.05888,1.21366c0.67185,0.65017 1.09446,1.32202 1.39787,2.23226l0.27091,0.82355v11.7898c0,12.8951 0.03251,12.23409 -0.61766,13.5236c-0.16798,0.33087 -0.52248,0.76457 -0.92869,1.17078l-18.51102,18.51102h-34.44235c-1.933,0 -3.5,-1.567 -3.5,-3.5l0,-35.72581l13.00057,-13.00057c0.40452,-0.40452 0.9052,-0.67341 1.5351,-0.8418c0.37927,-0.10836 2.83909,-0.13003 10.69534,-0.1192l10.19688,0.02167l0.53097,0.32509c0.68268,0.42261 1.14864,1.17031 1.21366,1.92885c0.02964,0.44457 0.01424,0.5739 -0.16115,0.74929l-2.09799,2.09799c2.14229,0.03359 2.37606,0.08477 2.55172,0.1977c0.28154,0.17237 0.52347,0.36911 0.7258,0.58538l2.25416,-2.25416z" id="flatShadow" fill="#000000" opacity="0.324"/><path d="M40.44506,20.46442h13.01429l0.81272,0.27091c0.93191,0.31425 1.44122,0.60683 2.05888,1.21366c0.67185,0.65017 1.09446,1.32202 1.39787,2.23226l0.27091,0.82355v11.7898c0,12.8951 0.03251,12.23409 -0.61766,13.5236c-0.3576,0.70435 -1.56041,1.87467 -2.30811,2.25393c-1.28951,0.63934 -0.57432,0.61766 -18.85501,0.61766c-18.22651,0 -17.55467,0.02167 -18.83334,-0.60683c-0.80188,-0.3901 -1.86383,-1.41954 -2.26477,-2.17808c-0.65017,-1.21366 -0.68268,-1.48456 -0.68268,-5.1472v-3.33755h3.99856l0.03251,3.10999c0.03251,2.88243 0.04334,3.1425 0.24923,3.43508c0.43345,0.63934 -0.55265,0.60683 17.50049,0.60683c18.05313,0 17.06704,0.03251 17.50049,-0.60683c0.20589,-0.30341 0.21672,-0.57432 0.24923,-7.33612l0.03251,-7.01103h-13.5561v-5.52647h13.54527v-1.33285c0,-1.56041 -0.10836,-2.02637 -0.55265,-2.3948l-0.33592,-0.28174h-12.6567zM25.23102,16.81262l10.19688,0.02167l0.53097,0.32509c0.68268,0.42261 1.14864,1.17031 1.21366,1.92885c0.03251,0.48763 0.01084,0.59599 -0.21672,0.80188l-0.26007,0.24923l-10.42444,0.02167l-10.4136,0.03251l-0.2384,0.2384c-0.30341,0.30341 -0.30341,0.85606 0.01084,1.15947c0.21672,0.22756 0.24923,0.22756 10.86872,0.28174c10.18604,0.05418 10.66284,0.06502 10.96625,0.26007c0.53097,0.32509 0.92108,0.73686 1.17031,1.20282c0.2384,0.43345 0.2384,0.49847 0.27091,7.42281c0.02167,4.83295 0,7.16274 -0.08669,7.54201c-0.16254,0.78021 -0.63934,1.3762 -1.38704,1.74463l-0.61766,0.30341h-22.21424l-0.59599,-0.28174c-0.7477,-0.3576 -1.32202,-0.94275 -1.71212,-1.71212l-0.29258,-0.60683v-18.3132l0.24923,-0.53097c0.48763,-1.08362 1.19198,-1.67961 2.28644,-1.97219c0.37927,-0.10836 2.83909,-0.13003 10.69534,-0.1192zM32.20954,31.04057c0,0.58516 0.1192,0.88857 0.48763,1.26784c0.63934,0.63934 1.6146,0.6285 2.30811,-0.01084c0.82355,-0.76937 0.59599,-2.15641 -0.43345,-2.68738c-1.0186,-0.53097 -2.36229,0.29258 -2.36229,1.43038z" id="icon" fill="#ffffff"/></g></svg>