<?xml version="1.0" encoding="UTF-8"?>
<svg id="_레이어_1" data-name="레이어 1" xmlns="http://www.w3.org/2000/svg" viewBox="0 0 200 200">
  <defs>
    <style>
      .cls-1 {
        fill: #222;
        stroke-width: 0px;
      }
    </style>
  </defs>
  <path class="cls-1" d="M74.63,155.43h0v-59.13l51.67-30.05v16.57h11.48v-22.31c0-2.04-.52-3.95-1.53-5.74s-2.42-3.19-4.21-4.21l-57.41-33.11c-1.78-1.03-3.7-1.53-5.74-1.53s-3.95.52-5.74,1.53L5.75,50.57c-1.79,1.02-3.19,2.42-4.21,4.21-1.03,1.78-1.53,3.69-1.53,5.74v65.06c0,2.04.52,3.95,1.53,5.74,1.02,1.79,2.42,3.19,4.21,4.21l57.41,33.11h0c1.78,1.03,3.7,1.54,5.74,1.54s3.95-.52,5.74-1.53l24.48-14.12,4.91-2.86s-.07-8.42-.09-10.23l-2.04-1.79-27.26,15.79ZM63.15,155.43l-51.67-29.85v-59.13l51.67,29.85v59.13ZM68.89,86.53h0l-51.09-29.66,51.1-29.47,50.9,29.47-50.9,29.66Z"/>
  <path class="cls-1" d="M137.45,177.92h-11.75c-10.71,0-19.43-8.72-19.43-19.43v-18.66l-2.29-1.85c-1.91-1.54-2.99-3.82-2.98-6.27.01-2.45,1.12-4.72,3.04-6.24l2.24-1.77v-18.73c0-10.71,8.72-19.43,19.43-19.43h11.75c2.76,0,5,2.24,5,5s-2.24,5-5,5h-11.75c-5.2,0-9.43,4.23-9.43,9.43v19.7c0,2.46-1.11,4.75-3.04,6.28l-1.04.82,1.09.88c1.89,1.52,2.98,3.8,2.98,6.23v19.61c0,5.2,4.23,9.43,9.43,9.43h11.75c2.76,0,5,2.24,5,5s-2.24,5-5,5ZM107.01,140.43s0,0,0,0h0Z"/>
  <path class="cls-1" d="M163.55,85.54h11.75c10.71,0,19.43,8.72,19.43,19.43v18.66l2.29,1.85c1.91,1.54,2.99,3.82,2.98,6.27-.01,2.45-1.12,4.72-3.04,6.24l-2.24,1.77v18.73c0,10.71-8.72,19.43-19.43,19.43h-11.75c-2.76,0-5-2.24-5-5s2.24-5,5-5h11.75c5.2,0,9.43-4.23,9.43-9.43v-19.7c0-2.46,1.11-4.75,3.04-6.28l1.04-.82-1.09-.88c-1.89-1.52-2.98-3.8-2.98-6.23v-19.61c0-5.2-4.23-9.43-9.43-9.43h-11.75c-2.76,0-5-2.24-5-5s2.24-5,5-5ZM193.98,123.03s0,0,0,0h0Z"/>
</svg>