<?xml version="1.0" encoding="UTF-8" standalone="no"?>
<?xml-stylesheet href="
  data:text/css,
  @import url(https://fonts.googleapis.com/css?family=Roboto:400,700);
  svg text {
    font-family: 'Roboto';
    font-size: 12px;
  }

    %23node3:hover ~ %23edge3 text { fill: %231976d2; }
  %23node3:hover ~ %23edge3 path { stroke: %231976d2; stroke-width: .2em; }
  %23node3:hover ~ %23edge3 polygon { fill: %231976d2; stroke: %231976d2; stroke-width: .2em; }

  %23node4:hover ~ %23edge3 text { fill: %23d32f2f; }
  %23node4:hover ~ %23edge3 path { stroke: %23d32f2f; stroke-width: .2em; }
  %23node4:hover ~ %23edge3 polygon { fill: %23d32f2f; stroke: %23d32f2f; stroke-width: .2em; }

  %23node2:hover ~ %23edge2 text { fill: %231976d2; }
  %23node2:hover ~ %23edge2 path { stroke: %231976d2; stroke-width: .2em; }
  %23node2:hover ~ %23edge2 polygon { fill: %231976d2; stroke: %231976d2; stroke-width: .2em; }

  %23node3:hover ~ %23edge2 text { fill: %23d32f2f; }
  %23node3:hover ~ %23edge2 path { stroke: %23d32f2f; stroke-width: .2em; }
  %23node3:hover ~ %23edge2 polygon { fill: %23d32f2f; stroke: %23d32f2f; stroke-width: .2em; }

  %23node1:hover ~ %23edge1 text { fill: %231976d2; }
  %23node1:hover ~ %23edge1 path { stroke: %231976d2; stroke-width: .2em; }
  %23node1:hover ~ %23edge1 polygon { fill: %231976d2; stroke: %231976d2; stroke-width: .2em; }

  %23node2:hover ~ %23edge1 text { fill: %23d32f2f; }
  %23node2:hover ~ %23edge1 path { stroke: %23d32f2f; stroke-width: .2em; }
  %23node2:hover ~ %23edge1 polygon { fill: %23d32f2f; stroke: %23d32f2f; stroke-width: .2em; }

  %23clust1:hover ~ %23edge1 text { fill: %23d32f2f; }
  %23clust1:hover ~ %23edge1 path { stroke: %23d32f2f; stroke-width: .2em; }
  %23clust1:hover ~ %23edge1 polygon { fill: %23d32f2f; stroke: %23d32f2f; stroke-width: .2em; }

" type="text/css"?>
<!DOCTYPE svg PUBLIC "-//W3C//DTD SVG 1.1//EN"
 "http://www.w3.org/Graphics/SVG/1.1/DTD/svg11.dtd">
<!-- Generated by graphviz version 2.43.0 (0)
 -->
<!-- Title: G Pages: 1 -->
<svg width="402pt" height="409pt"
 viewBox="0.00 0.00 402.00 408.69" xmlns="http://www.w3.org/2000/svg" xmlns:xlink="http://www.w3.org/1999/xlink">
<g id="graph0" class="graph" transform="scale(1 1) rotate(0) translate(4 404.69)">
<title>G</title>
<g id="a_graph0"><a xlink:title=" ">
<polygon fill="white" stroke="transparent" points="-4,4 -4,-404.69 398,-404.69 398,4 -4,4"/>
<text text-anchor="start" x="111" y="-372.49" font-family="Times,serif" font-weight="bold" font-size="14.00">Computation main.11</text>
<text text-anchor="start" x="117" y="-358.49" font-family="Times,serif" font-weight="bold" font-size="14.00">ENTRY computation</text>
</a>
</g>
<g id="clust1" class="cluster">
<title>cluster_58094048</title>
<g id="a_clust1"><a xlink:title=" ">
<path fill="#f5f5f5" stroke="#c2c2c2" stroke-width="2" d="M20,-104.69C20,-104.69 374,-104.69 374,-104.69 380,-104.69 386,-110.69 386,-116.69 386,-116.69 386,-294.69 386,-294.69 386,-300.69 380,-306.69 374,-306.69 374,-306.69 20,-306.69 20,-306.69 14,-306.69 8,-300.69 8,-294.69 8,-294.69 8,-116.69 8,-116.69 8,-110.69 14,-104.69 20,-104.69"/>
<text text-anchor="start" x="16" y="-292.49" font-family="Times,serif" font-size="14.00">Fused expression for </text>
<text text-anchor="start" x="171" y="-292.49" font-family="Times,serif" font-weight="bold" font-size="14.00">broadcast_multiply_fusion</text>
<text text-anchor="start" x="157.5" y="-278.49" font-family="Times,serif" font-size="14.00">loop fusion</text>
<text text-anchor="start" x="154" y="-264.49" font-family="Times,serif" font-size="14.00">kind=kLoop</text>
</a>
</g>
</g>
<!-- 57042720 -->
<g id="node1" class="node">
<title>57042720</title>
<g id="a_node1"><a xlink:title="x">
<polygon fill="#ffe0b2" stroke="#cbae82" points="254,-350.69 140,-350.69 140,-314.69 254,-314.69 254,-350.69"/>
<text text-anchor="start" x="148" y="-336.49" font-family="Times,serif" font-weight="bold" font-size="14.00">Parameter 0</text>
<text text-anchor="start" x="171" y="-322.49" font-family="Times,serif" font-size="14.00">f32[10]</text>
</a>
</g>
</g>
<!-- 55804288 -->
<g id="node2" class="node">
<title>55804288</title>
<polygon fill="#ffe0b2" stroke="#cbae82" points="254,-248.69 140,-248.69 140,-212.69 254,-212.69 254,-248.69"/>
<text text-anchor="start" x="148" y="-234.49" font-family="Times,serif" font-weight="bold" font-size="14.00">Parameter 0</text>
<text text-anchor="start" x="171" y="-220.49" font-family="Times,serif" font-size="14.00">f32[10]</text>
</g>
<!-- 57042720&#45;&gt;55804288 -->
<g id="edge1" class="edge">
<title>57042720&#45;&gt;55804288</title>
<g id="a_edge1"><a xlink:title="x.1 &#45;&gt; param_0">
<path fill="none" stroke="black" d="M197,-314.27C197,-299.07 197,-276.76 197,-259.16"/>
<polygon fill="none" stroke="black" points="200.5,-258.91 197,-248.91 193.5,-258.91 200.5,-258.91"/>
</a>
</g>
</g>
<!-- 57704768 -->
<g id="node3" class="node">
<title>57704768</title>
<g id="a_node3"><a xlink:title="jit(func)/jit(func)/mul&#10;source: /home/chanial/work/scipol/visu_hlo/generate_example_svgs.py:16">
<polygon fill="white" stroke="#9e9e9e" points="288,-176.69 106,-176.69 106,-112.69 288,-112.69 288,-176.69"/>
<text text-anchor="start" x="174" y="-162.49" font-family="Times,serif" font-weight="bold" font-size="14.00">mul.2</text>
<text text-anchor="start" x="167" y="-148.49" font-family="Times,serif" font-size="14.00">multiply</text>
<text text-anchor="start" x="171" y="-134.49" font-family="Times,serif" font-size="14.00">f32[10]</text>
<text text-anchor="start" x="114" y="-120.49" font-family="Times,serif" font-weight="bold" font-size="14.00">operand 1</text>
<text text-anchor="start" x="193" y="-120.49" font-family="Times,serif" font-size="14.00"> = f32[10] 6</text>
</a>
</g>
</g>
<!-- 55804288&#45;&gt;57704768 -->
<g id="edge2" class="edge">
<title>55804288&#45;&gt;57704768</title>
<g id="a_edge2"><a xlink:title="param_0 &#45;&gt; mul.2">
<path fill="none" stroke="black" d="M197,-212.29C197,-204.97 197,-196.1 197,-187.27"/>
<polygon fill="none" stroke="black" points="200.5,-187 197,-177 193.5,-187 200.5,-187"/>
</a>
</g>
<text text-anchor="middle" x="205.45" y="-191.42" font-family="Times,serif" font-size="14.00">0</text>
</g>
<!-- cluster_58167152 -->
<g id="node4" class="node">
<title>cluster_58167152</title>
<g id="a_node4"><a xlink:title=" ">
<ellipse fill="#bcaaa4" stroke="#8c7b75" cx="197" cy="-38.35" rx="38.19" ry="38.19"/>
<text text-anchor="start" x="175.5" y="-34.65" font-family="Times,serif" font-size="14.00">ROOT</text>
</a>
</g>
</g>
<!-- 57704768&#45;&gt;cluster_58167152 -->
<g id="edge3" class="edge">
<title>57704768&#45;&gt;cluster_58167152</title>
<g id="a_edge3"><a xlink:title=" ">
<path fill="none" stroke="black" d="M197,-112.67C197,-104.55 197,-95.61 197,-86.85"/>
<polygon fill="black" stroke="black" points="200.5,-86.7 197,-76.7 193.5,-86.7 200.5,-86.7"/>
</a>
</g>
</g>
</g>
</svg>
