<?xml version="1.0" encoding="UTF-8"?>
<svg id="_레이어_1" data-name="레이어 1" xmlns="http://www.w3.org/2000/svg" viewBox="0 0 200 200">
  <defs>
    <style>
      .cls-1 {
        fill: #222;
        stroke-width: 0px;
      }
    </style>
  </defs>
  <path class="cls-1" d="M185.2,34.28h-19.48V15.86c0-8.77-6.64-15.9-14.8-15.9H15.1C6.77-.04,0,7.09,0,15.86v133.86c0,8.78,6.77,15.91,15.1,15.91h19.18v18.41c0,8.77,6.77,15.91,15.1,15.91h135.82c8.16,0,14.8-7.14,14.8-15.91V50.18c0-8.77-6.64-15.9-14.8-15.9ZM165.72,46.3h19.48c1.29,0,2.78,1.7,2.78,3.89v22.25H46.3v-22.25c0-2.11,1.41-3.89,3.08-3.89h116.34ZM15.1,11.98h135.82c1.29,0,2.78,1.7,2.78,3.89v18.42H49.38c-3.74,0-7.17,1.45-9.81,3.84H12.02V15.86c0-2.11,1.41-3.89,3.08-3.89ZM34.28,153.62H15.1c-1.67,0-3.08-1.78-3.08-3.9V50.14h22.26s0,.03,0,.05v103.44ZM185.2,187.94H49.38c-1.67,0-3.08-1.78-3.08-3.9v-99.59h141.68v99.59c0,2.19-1.49,3.9-2.78,3.9Z"/>
  <path class="cls-1" d="M116.67,126.1h.46l11.4-19.18h13.1l-16.99,27.89,17.38,27.89h-13.33l-11.56-19.19h-.46l-11.56,19.19h-13.29l17.49-27.89-17.18-27.89h13.18l11.37,19.18Z"/>
  <path class="cls-1" d="M78.78,134.22c0-12.18,3.34-23.67,9.4-32.37l1.1-1.57h-9.81l-.29.5c-5.49,9.63-9.4,21.19-9.4,33.43s3.94,23.94,9.49,33.6l.29.5h9.89l-1.17-1.58c-6.13-8.71-9.5-20.26-9.5-32.52Z"/>
  <path class="cls-1" d="M155.15,134.22c0-12.18-3.34-23.67-9.4-32.37l-1.1-1.57h1.92s7.31,0,7.31,0h.58l.29.5c5.49,9.63,9.4,21.19,9.4,33.43s-3.94,23.94-9.49,33.6l-.29.5h-.58s-9.31,0-9.31,0l1.17-1.58c6.13-8.71,9.5-20.26,9.5-32.52Z"/>
</svg>