<?xml version="1.0" encoding="utf-8"?>
<!-- Generator: Adobe Illustrator 26.0.2, SVG Export Plug-In . SVG Version: 6.00 Build 0)  -->
<svg version="1.1" id="Layer_1" xmlns="http://www.w3.org/2000/svg" xmlns:xlink="http://www.w3.org/1999/xlink" x="0px" y="0px"
	 viewBox="0 0 16 16" style="enable-background:new 0 0 16 16;" xml:space="preserve">
<style type="text/css">
	.st0{fill:#5C6D8E;}
</style>
<g>
	<path class="st0" d="M8,8"/>
	<g>
		<g>
			<path class="st0" d="M14.1,2.7L8.2,0C8.1,0,7.9,0,7.8,0L1.9,2.7c-0.1,0-0.2,0.1-0.2,0.2C1.6,3,1.6,3.1,1.6,3.2v5.4
				c0,0.9,0.2,1.8,0.6,2.6c0.4,0.8,1,1.5,1.7,2l3.8,2.7h0C7.8,16,7.9,16,8,16c0.1,0,0.2,0,0.3-0.1l3.8-2.7h0c0.7-0.5,1.3-1.2,1.7-2
				c0.4-0.8,0.6-1.7,0.6-2.6V3.2c0-0.1,0-0.2-0.1-0.3C14.3,2.8,14.2,2.8,14.1,2.7L14.1,2.7z M13.3,8.6c0,1.5-0.7,2.8-1.9,3.7L8,14.8
				l-3.5-2.5c-1.2-0.9-1.9-2.2-1.9-3.7V3.5L8,1.1l5.3,2.4L13.3,8.6z"/>
		</g>
	</g>
	<path class="st0" d="M10.5,8.8L10.5,8.8c-0.1,0-0.1,0.1-0.2,0.1c-0.1,0-0.2,0-0.2-0.1c0-0.1-0.1-0.1-0.1-0.2c0-0.1,0.1-0.1,0.1-0.2
		L10.6,8l-0.5-0.3c-0.1,0-0.1-0.1-0.1-0.2c0-0.1,0-0.2,0-0.2c0.1-0.1,0.3-0.2,0.4-0.1l0.3,0.2V7.1c0-0.1,0.1-0.3,0.3-0.3
		c0.1,0,0.3,0.1,0.3,0.3v0.3l0.4-0.2v0c0.1,0,0.1-0.1,0.2,0c0.1,0,0.1,0.1,0.2,0.1c0.1,0.1,0,0.3-0.1,0.4L11.6,8l0.5,0.4v0
		c0.1,0,0.1,0.1,0.1,0.2c0,0.1,0,0.2-0.1,0.2c-0.1,0.1-0.1,0.1-0.2,0.1c-0.1,0-0.1,0-0.2-0.1l-0.3-0.2v0.3c0,0.1,0,0.2-0.1,0.2
		c-0.1,0.1-0.1,0.1-0.2,0.1s-0.2,0-0.2-0.1c-0.1-0.1-0.1-0.1-0.1-0.2V8.6L10.5,8.8z M7.4,8.8L7.4,8.8c0,0-0.1,0.1-0.2,0.1
		C7.1,8.9,7,8.8,7,8.7c0-0.1-0.1-0.1-0.1-0.2S7,8.4,7,8.3L7.5,8L7,7.7C7,7.6,6.9,7.6,6.9,7.5c0-0.1,0-0.2,0-0.2C7,7.2,7,7.1,7.1,7.1
		c0.1,0,0.2,0,0.2,0.1l0.4,0.2V7.1C7.7,7,7.8,6.8,8,6.8c0.2,0,0.3,0.1,0.3,0.3v0.3l0.4-0.2v0C8.8,7.1,8.9,7.1,9,7.3
		c0.1,0.1,0.1,0.3-0.1,0.4L8.5,8L9,8.3v0c0.1,0,0.1,0.1,0.1,0.2c0,0.1,0,0.2-0.1,0.2C9,8.8,8.9,8.8,8.8,8.8c-0.1,0-0.1,0-0.2-0.1
		L8.3,8.6v0.3C8.3,9,8.2,9.1,8,9.1C7.8,9.1,7.7,9,7.7,8.9V8.6L7.4,8.8z M3.9,7.7c-0.1,0-0.1-0.1-0.1-0.2c0-0.1,0-0.2,0-0.2
		c0.1-0.1,0.3-0.2,0.4-0.1l0.3,0.2V7.1c0-0.1,0.1-0.3,0.3-0.3C5,6.9,5.1,7,5.2,7.1v0.3l0.4-0.2v0c0.1,0,0.1-0.1,0.2,0
		c0.1,0,0.1,0.1,0.2,0.1C6,7.4,6,7.6,5.8,7.7L5.4,8l0.5,0.4l0,0c0.1,0,0.1,0.1,0.1,0.2c0,0.1,0,0.2-0.1,0.2C5.8,8.8,5.8,8.8,5.7,8.8
		c-0.1,0-0.1,0-0.2-0.1L5.2,8.6v0.3c0,0.1,0,0.2-0.1,0.2C5,9.1,4.9,9.2,4.9,9.2s-0.2,0-0.2-0.1C4.6,9,4.6,8.9,4.6,8.9V8.6L4.2,8.8
		c-0.1,0-0.1,0.1-0.2,0.1c-0.1,0-0.2,0-0.2-0.1C3.8,8.6,3.8,8.4,3.9,8.3L4.4,8L3.9,7.7z"/>
</g>
</svg>
