<?xml version="1.0" encoding="UTF-8" standalone="no"?>
<!DOCTYPE svg PUBLIC "-//W3C//DTD SVG 1.1//EN" "http://www.w3.org/Graphics/SVG/1.1/DTD/svg11.dtd">
<svg width="100%" height="100%" viewBox="0 0 3693 740" version="1.1" xmlns="http://www.w3.org/2000/svg" xmlns:xlink="http://www.w3.org/1999/xlink" xml:space="preserve" xmlns:serif="http://www.serif.com/" style="fill-rule:evenodd;clip-rule:evenodd;stroke-linejoin:round;stroke-miterlimit:1.5;">
    <g transform="matrix(1,0,0,1,-1625.34,-158.652)">
        <g transform="matrix(2.04573,0,0,1.08225,-1629.97,199.892)">
            <g transform="matrix(0.99161,0,0,0.516929,1683.33,-11.0835)">
                <rect x="-92.846" y="-52.275" width="1820.44" height="1322.64" style="fill:rgb(30,33,41);"/>
            </g>
        </g>
        <g transform="matrix(2.04573,0,0,1.08225,-1629.97,199.892)">
            <g id="Header" transform="matrix(0.488823,0,0,0.924,796.764,-184.7)">
                <g transform="matrix(1.09677,0,0,1.09677,-310.624,260.943)">
                    <g transform="matrix(453.082,0,0,453.082,2659.95,356.024)">
                        <path d="M0.634,0.051C0.634,0.073 0.631,0.092 0.625,0.109C0.62,0.127 0.613,0.142 0.604,0.155C0.594,0.169 0.584,0.18 0.572,0.189C0.56,0.198 0.547,0.206 0.534,0.212C0.521,0.218 0.507,0.222 0.494,0.225C0.48,0.228 0.468,0.229 0.456,0.229L0.227,0.229L0.227,0.102L0.456,0.102C0.473,0.102 0.486,0.098 0.494,0.089C0.503,0.08 0.507,0.067 0.507,0.051L0.507,-0.35C0.507,-0.367 0.503,-0.379 0.494,-0.388C0.486,-0.396 0.473,-0.401 0.456,-0.401L0.227,-0.401C0.211,-0.401 0.199,-0.396 0.189,-0.386C0.18,-0.377 0.176,-0.365 0.176,-0.35L0.176,-0.178C0.176,-0.162 0.18,-0.149 0.189,-0.14C0.198,-0.131 0.211,-0.127 0.228,-0.127L0.456,-0.127L0.456,-0L0.227,-0C0.215,-0 0.202,-0.001 0.188,-0.004C0.175,-0.007 0.162,-0.011 0.148,-0.017C0.135,-0.023 0.123,-0.03 0.111,-0.04C0.099,-0.049 0.088,-0.06 0.079,-0.073C0.07,-0.087 0.063,-0.102 0.057,-0.119C0.052,-0.137 0.049,-0.156 0.049,-0.178L0.049,-0.35C0.049,-0.362 0.05,-0.375 0.053,-0.388C0.056,-0.402 0.06,-0.415 0.066,-0.428C0.072,-0.441 0.079,-0.454 0.088,-0.466C0.098,-0.478 0.109,-0.488 0.122,-0.498C0.135,-0.507 0.151,-0.514 0.168,-0.52C0.185,-0.525 0.205,-0.528 0.227,-0.528L0.456,-0.528C0.468,-0.528 0.48,-0.526 0.494,-0.523C0.507,-0.521 0.521,-0.517 0.534,-0.511C0.547,-0.505 0.56,-0.497 0.572,-0.488C0.584,-0.479 0.594,-0.467 0.604,-0.454C0.613,-0.441 0.62,-0.426 0.625,-0.409C0.631,-0.391 0.634,-0.372 0.634,-0.35L0.634,0.051Z" style="fill:white;fill-rule:nonzero;"/>
                    </g>
                    <g transform="matrix(453.082,0,0,453.082,2972.77,356.024)">
                        <path d="M0.634,-0.178C0.634,-0.156 0.631,-0.137 0.625,-0.119C0.62,-0.102 0.613,-0.087 0.604,-0.073C0.594,-0.06 0.584,-0.049 0.572,-0.04C0.56,-0.03 0.547,-0.023 0.534,-0.017C0.521,-0.011 0.507,-0.007 0.494,-0.004C0.48,-0.001 0.468,-0 0.456,-0L0.227,-0C0.209,-0 0.19,-0.003 0.169,-0.009C0.148,-0.015 0.129,-0.026 0.111,-0.04C0.093,-0.054 0.078,-0.072 0.066,-0.095C0.055,-0.118 0.049,-0.145 0.049,-0.178L0.049,-0.35C0.049,-0.383 0.055,-0.41 0.066,-0.433C0.078,-0.455 0.093,-0.474 0.111,-0.488C0.129,-0.502 0.148,-0.512 0.169,-0.519C0.19,-0.525 0.209,-0.528 0.227,-0.528L0.456,-0.528C0.488,-0.528 0.516,-0.522 0.539,-0.51C0.561,-0.499 0.58,-0.484 0.594,-0.466C0.608,-0.448 0.618,-0.429 0.624,-0.408C0.631,-0.387 0.634,-0.368 0.634,-0.35L0.634,-0.178ZM0.507,-0.349C0.507,-0.367 0.502,-0.38 0.494,-0.388C0.485,-0.397 0.472,-0.401 0.456,-0.401L0.228,-0.401C0.211,-0.401 0.198,-0.396 0.189,-0.388C0.18,-0.379 0.176,-0.367 0.176,-0.35L0.176,-0.178C0.176,-0.162 0.18,-0.149 0.189,-0.14C0.198,-0.131 0.211,-0.127 0.228,-0.127L0.456,-0.127C0.473,-0.127 0.486,-0.131 0.494,-0.14C0.503,-0.149 0.507,-0.162 0.507,-0.178L0.507,-0.349Z" style="fill:white;fill-rule:nonzero;"/>
                    </g>
                    <g transform="matrix(453.082,0,0,453.082,3281.83,356.024)">
                        <path d="M0.634,0.051C0.634,0.073 0.631,0.092 0.625,0.109C0.62,0.127 0.613,0.142 0.604,0.155C0.594,0.169 0.584,0.18 0.572,0.189C0.56,0.198 0.547,0.206 0.534,0.212C0.521,0.218 0.507,0.222 0.494,0.225C0.48,0.228 0.468,0.229 0.456,0.229L0.227,0.229L0.227,0.102L0.456,0.102C0.473,0.102 0.486,0.098 0.494,0.089C0.503,0.08 0.507,0.067 0.507,0.051L0.507,-0.35C0.507,-0.367 0.503,-0.379 0.494,-0.388C0.486,-0.396 0.473,-0.401 0.456,-0.401L0.227,-0.401C0.211,-0.401 0.199,-0.396 0.189,-0.386C0.18,-0.377 0.176,-0.365 0.176,-0.35L0.176,-0.178C0.176,-0.162 0.18,-0.149 0.189,-0.14C0.198,-0.131 0.211,-0.127 0.228,-0.127L0.456,-0.127L0.456,-0L0.227,-0C0.215,-0 0.202,-0.001 0.188,-0.004C0.175,-0.007 0.162,-0.011 0.148,-0.017C0.135,-0.023 0.123,-0.03 0.111,-0.04C0.099,-0.049 0.088,-0.06 0.079,-0.073C0.07,-0.087 0.063,-0.102 0.057,-0.119C0.052,-0.137 0.049,-0.156 0.049,-0.178L0.049,-0.35C0.049,-0.362 0.05,-0.375 0.053,-0.388C0.056,-0.402 0.06,-0.415 0.066,-0.428C0.072,-0.441 0.079,-0.454 0.088,-0.466C0.098,-0.478 0.109,-0.488 0.122,-0.498C0.135,-0.507 0.151,-0.514 0.168,-0.52C0.185,-0.525 0.205,-0.528 0.227,-0.528L0.456,-0.528C0.468,-0.528 0.48,-0.526 0.494,-0.523C0.507,-0.521 0.521,-0.517 0.534,-0.511C0.547,-0.505 0.56,-0.497 0.572,-0.488C0.584,-0.479 0.594,-0.467 0.604,-0.454C0.613,-0.441 0.62,-0.426 0.625,-0.409C0.631,-0.391 0.634,-0.372 0.634,-0.35L0.634,0.051Z" style="fill:white;fill-rule:nonzero;"/>
                    </g>
                    <g transform="matrix(453.082,0,0,453.082,3594.65,356.024)">
                        <path d="M0.604,-0.175C0.604,-0.157 0.601,-0.138 0.595,-0.118C0.589,-0.097 0.579,-0.079 0.565,-0.061C0.551,-0.044 0.533,-0.029 0.511,-0.018C0.489,-0.006 0.462,-0 0.43,-0L0.201,-0C0.183,-0 0.164,-0.003 0.144,-0.009C0.123,-0.015 0.104,-0.025 0.087,-0.039C0.07,-0.053 0.055,-0.071 0.043,-0.093C0.032,-0.116 0.026,-0.143 0.026,-0.175C0.026,-0.192 0.029,-0.211 0.035,-0.232C0.041,-0.252 0.051,-0.271 0.065,-0.289C0.079,-0.306 0.097,-0.321 0.119,-0.333C0.142,-0.344 0.169,-0.35 0.201,-0.35L0.43,-0.35L0.43,-0.229L0.201,-0.229C0.183,-0.229 0.17,-0.224 0.161,-0.213C0.151,-0.202 0.146,-0.189 0.146,-0.174C0.146,-0.157 0.152,-0.144 0.163,-0.135C0.174,-0.126 0.187,-0.121 0.202,-0.121L0.43,-0.121C0.447,-0.121 0.46,-0.126 0.47,-0.137C0.479,-0.147 0.484,-0.16 0.484,-0.176L0.484,-0.353C0.484,-0.37 0.479,-0.383 0.468,-0.393C0.458,-0.402 0.445,-0.407 0.43,-0.407L0.151,-0.407L0.151,-0.528L0.43,-0.528C0.447,-0.528 0.466,-0.525 0.486,-0.519C0.507,-0.512 0.526,-0.502 0.543,-0.488C0.561,-0.475 0.575,-0.457 0.587,-0.434C0.599,-0.412 0.604,-0.385 0.604,-0.353L0.604,-0.175Z" style="fill:white;fill-rule:nonzero;"/>
                    </g>
                    <g transform="matrix(453.082,0,0,453.082,3890.66,356.024)">
                        <path d="M0.639,-0.178C0.639,-0.156 0.636,-0.137 0.63,-0.119C0.625,-0.102 0.618,-0.087 0.608,-0.073C0.599,-0.06 0.589,-0.049 0.577,-0.04C0.565,-0.03 0.552,-0.023 0.539,-0.017C0.526,-0.011 0.512,-0.007 0.499,-0.004C0.485,-0.001 0.472,-0 0.46,-0L0.231,-0C0.21,-0 0.19,-0.003 0.173,-0.008C0.156,-0.014 0.14,-0.021 0.127,-0.03C0.114,-0.04 0.103,-0.05 0.093,-0.063C0.084,-0.075 0.077,-0.087 0.071,-0.1C0.065,-0.113 0.061,-0.127 0.058,-0.14C0.055,-0.154 0.054,-0.167 0.054,-0.178L0.054,-0.35C0.054,-0.383 0.06,-0.41 0.071,-0.433C0.083,-0.455 0.098,-0.474 0.116,-0.488C0.134,-0.502 0.153,-0.512 0.174,-0.519C0.195,-0.525 0.214,-0.528 0.231,-0.528L0.46,-0.528L0.46,-0.401L0.232,-0.401C0.215,-0.401 0.203,-0.396 0.194,-0.388C0.185,-0.379 0.181,-0.367 0.181,-0.35L0.181,-0.179C0.181,-0.162 0.185,-0.149 0.193,-0.14C0.202,-0.131 0.215,-0.127 0.231,-0.127L0.46,-0.127C0.478,-0.127 0.491,-0.131 0.499,-0.14C0.507,-0.149 0.512,-0.162 0.512,-0.178L0.512,-0.751L0.639,-0.751L0.639,-0.178Z" style="fill:white;fill-rule:nonzero;"/>
                    </g>
                    <g transform="matrix(453.082,0,0,453.082,4207.91,356.024)">
                        <path d="M0.634,0.051C0.634,0.073 0.631,0.092 0.625,0.109C0.62,0.127 0.613,0.142 0.604,0.155C0.594,0.169 0.584,0.18 0.572,0.189C0.56,0.198 0.547,0.206 0.534,0.212C0.521,0.218 0.507,0.222 0.494,0.225C0.48,0.228 0.468,0.229 0.456,0.229L0.227,0.229L0.227,0.102L0.456,0.102C0.473,0.102 0.486,0.098 0.494,0.089C0.503,0.08 0.507,0.067 0.507,0.051L0.507,-0.35C0.507,-0.367 0.503,-0.379 0.494,-0.388C0.486,-0.396 0.473,-0.401 0.456,-0.401L0.227,-0.401C0.211,-0.401 0.199,-0.396 0.189,-0.386C0.18,-0.377 0.176,-0.365 0.176,-0.35L0.176,-0.178C0.176,-0.162 0.18,-0.149 0.189,-0.14C0.198,-0.131 0.211,-0.127 0.228,-0.127L0.456,-0.127L0.456,-0L0.227,-0C0.215,-0 0.202,-0.001 0.188,-0.004C0.175,-0.007 0.162,-0.011 0.148,-0.017C0.135,-0.023 0.123,-0.03 0.111,-0.04C0.099,-0.049 0.088,-0.06 0.079,-0.073C0.07,-0.087 0.063,-0.102 0.057,-0.119C0.052,-0.137 0.049,-0.156 0.049,-0.178L0.049,-0.35C0.049,-0.362 0.05,-0.375 0.053,-0.388C0.056,-0.402 0.06,-0.415 0.066,-0.428C0.072,-0.441 0.079,-0.454 0.088,-0.466C0.098,-0.478 0.109,-0.488 0.122,-0.498C0.135,-0.507 0.151,-0.514 0.168,-0.52C0.185,-0.525 0.205,-0.528 0.227,-0.528L0.456,-0.528C0.468,-0.528 0.48,-0.526 0.494,-0.523C0.507,-0.521 0.521,-0.517 0.534,-0.511C0.547,-0.505 0.56,-0.497 0.572,-0.488C0.584,-0.479 0.594,-0.467 0.604,-0.454C0.613,-0.441 0.62,-0.426 0.625,-0.409C0.631,-0.391 0.634,-0.372 0.634,-0.35L0.634,0.051Z" style="fill:white;fill-rule:nonzero;"/>
                    </g>
                    <g transform="matrix(453.082,0,0,453.082,4520.73,356.024)">
                        <path d="M0.627,-0.353C0.627,-0.335 0.624,-0.316 0.618,-0.296C0.612,-0.276 0.602,-0.257 0.588,-0.239C0.574,-0.222 0.556,-0.208 0.534,-0.196C0.512,-0.184 0.485,-0.178 0.453,-0.178L0.224,-0.178L0.224,-0.299L0.453,-0.299C0.47,-0.299 0.483,-0.304 0.493,-0.314C0.502,-0.325 0.507,-0.338 0.507,-0.354C0.507,-0.371 0.501,-0.384 0.491,-0.393C0.48,-0.403 0.468,-0.407 0.453,-0.407L0.224,-0.407C0.206,-0.407 0.193,-0.402 0.184,-0.391C0.174,-0.381 0.169,-0.368 0.169,-0.352L0.169,-0.175C0.169,-0.158 0.175,-0.145 0.185,-0.135C0.196,-0.126 0.209,-0.121 0.225,-0.121L0.453,-0.121L0.453,-0L0.224,-0C0.206,-0 0.187,-0.003 0.167,-0.009C0.146,-0.015 0.127,-0.025 0.11,-0.039C0.093,-0.053 0.078,-0.071 0.066,-0.093C0.055,-0.116 0.049,-0.143 0.049,-0.175L0.049,-0.353C0.049,-0.371 0.052,-0.389 0.058,-0.41C0.064,-0.43 0.074,-0.449 0.088,-0.466C0.102,-0.484 0.12,-0.499 0.142,-0.51C0.165,-0.522 0.192,-0.528 0.224,-0.528L0.453,-0.528C0.47,-0.528 0.489,-0.525 0.509,-0.519C0.53,-0.512 0.549,-0.502 0.566,-0.488C0.583,-0.475 0.598,-0.457 0.61,-0.434C0.622,-0.412 0.627,-0.385 0.627,-0.353Z" style="fill:white;fill-rule:nonzero;"/>
                    </g>
                    <g transform="matrix(453.082,0,0,453.082,4816.74,356.024)">
                        <path d="M0.54,-0.401L0.318,-0.401L0.318,-0L0.189,-0L0.189,-0.401L0.024,-0.401L0.024,-0.528L0.189,-0.528L0.189,-0.7L0.318,-0.7L0.318,-0.528L0.54,-0.528L0.54,-0.401Z" style="fill:white;fill-rule:nonzero;"/>
                    </g>
                </g>
                <g id="Icon" transform="matrix(0.833333,0,0,0.873238,1648,193.955)">
                    <path d="M540,200C540,200 596.298,157.423 628.224,143.09C661.557,128.126 740,110.211 740,110.211C740,110.211 784.143,371.187 829.372,420C839.389,430.811 892.634,427.152 948.957,450.284C992.684,468.243 1020,480 1020,480C1020,480 861.93,625.034 540,630C194.855,635.325 60,487.466 60,487.466C60,487.466 102.292,464.969 148.665,449.466C183.539,437.808 221.833,435.414 240,420C295.08,373.265 320,109.737 320,109.737C320,109.737 401.155,125.062 437.822,140.106C474.347,155.092 540,200 540,200Z" style="fill:rgb(40,143,240);"/>
                    <path d="M524.08,203.951C497.751,228.969 490.352,278.955 488.391,312.117C486.504,344.047 515.665,429.139 495.641,467.489C468.284,519.883 416.694,574.24 225.553,581.591C206.384,582.328 61.051,498.389 61.051,498.389L128.438,460.055L236.718,424.232L265.079,386.994L296.199,263.642L325.55,113.914C325.55,113.914 555.85,173.764 524.08,203.951Z" style="fill:rgb(14,73,128);"/>
                    <path d="M260,400C260,400 365.465,457.397 539.054,460C712.643,462.603 820,400 820,400" style="fill:none;stroke:rgb(0,31,60);stroke-width:103.1px;"/>
                    <path d="M540,200C540,200 596.298,157.423 628.224,143.09C661.557,128.126 740,110.211 740,110.211C740,110.211 784.143,371.187 829.372,420C839.389,430.811 892.634,427.152 948.957,450.284C992.684,468.243 1020,480 1020,480C1020,480 861.93,625.034 540,630C194.855,635.325 60,487.466 60,487.466C60,487.466 102.292,464.969 148.665,449.466C183.539,437.808 221.833,435.414 240,420C295.08,373.265 320,109.737 320,109.737C320,109.737 401.155,125.062 437.822,140.106C474.347,155.092 540,200 540,200Z" style="fill:none;stroke:rgb(7,50,90);stroke-width:39.84px;stroke-linecap:round;"/>
                </g>
            </g>
        </g>
    </g>
</svg>
