<?xml version="1.0" encoding="UTF-8" standalone="no"?>
<!DOCTYPE svg PUBLIC "-//W3C//DTD SVG 1.1//EN" "http://www.w3.org/Graphics/SVG/1.1/DTD/svg11.dtd">
<svg width="100%" height="100%" viewBox="0 0 1186 165" version="1.1" xmlns="http://www.w3.org/2000/svg" xmlns:xlink="http://www.w3.org/1999/xlink" xml:space="preserve" xmlns:serif="http://www.serif.com/" style="fill-rule:evenodd;clip-rule:evenodd;stroke-linejoin:round;stroke-miterlimit:1.5;">
    <g transform="matrix(1,0,0,1,-1744.48,-9.30998)">
        <g transform="matrix(0.412545,0,0,0.412545,1721.33,6.53602)">
            <g>
                <g id="Header">
                    <g>
                        <g>
                            <path d="M1057.94,332.906C1057.94,341.733 1056.74,349.356 1054.33,356.177C1052.32,363.399 1049.52,369.417 1045.9,374.633C1041.89,380.251 1037.88,384.664 1033.06,388.275C1028.25,391.886 1023.03,395.096 1017.82,397.503C1012.6,399.91 1006.99,401.515 1001.77,402.719C996.152,403.923 991.337,404.324 986.523,404.324L894.643,404.324L894.643,353.369L986.523,353.369C993.343,353.369 998.559,351.764 1001.77,348.153C1005.38,344.542 1006.99,339.326 1006.99,332.906L1006.99,172.016C1006.99,165.195 1005.38,160.38 1001.77,156.769C998.559,153.56 993.343,151.554 986.523,151.554L894.643,151.554C888.223,151.554 883.408,153.56 879.396,157.572C875.785,161.183 874.18,165.998 874.18,172.016L874.18,241.026C874.18,247.446 875.785,252.662 879.396,256.273C883.007,259.884 888.223,261.489 895.044,261.489L986.523,261.489L986.523,312.444L894.643,312.444C889.828,312.444 884.612,312.043 878.995,310.839C873.779,309.635 868.563,308.03 862.946,305.623C857.73,303.216 852.915,300.407 848.101,296.395C843.286,292.784 838.872,288.37 835.261,283.155C831.65,277.537 828.842,271.519 826.435,264.698C824.428,257.476 823.225,249.853 823.225,241.026L823.225,172.016C823.225,167.201 823.626,161.985 824.83,156.769C826.033,151.152 827.638,145.936 830.046,140.721C832.453,135.505 835.261,130.289 838.872,125.474C842.885,120.659 847.298,116.647 852.514,112.635C857.73,109.024 864.15,106.215 870.97,103.808C877.791,101.802 885.816,100.598 894.643,100.598L986.523,100.598C991.337,100.598 996.152,101.401 1001.77,102.604C1006.99,103.407 1012.6,105.012 1017.82,107.419C1023.03,109.826 1028.25,113.036 1033.06,116.647C1037.88,120.258 1041.89,125.073 1045.9,130.289C1049.52,135.505 1052.32,141.523 1054.33,148.344C1056.74,155.566 1057.94,163.189 1057.94,172.016L1057.94,332.906Z" style="fill:white;fill-rule:nonzero;"/>
                        </g>
                        <g>
                            <path d="M1334.95,241.026C1334.95,249.853 1333.75,257.476 1331.34,264.698C1329.33,271.519 1326.52,277.537 1322.91,283.155C1318.9,288.37 1314.89,292.784 1310.07,296.395C1305.26,300.407 1300.04,303.216 1294.83,305.623C1289.61,308.03 1283.99,309.635 1278.78,310.839C1273.16,312.043 1268.35,312.444 1263.53,312.444L1171.65,312.444C1164.43,312.444 1156.81,311.24 1148.38,308.833C1139.95,306.426 1132.33,302.012 1125.11,296.395C1117.89,290.778 1111.87,283.556 1107.06,274.328C1102.64,265.1 1100.23,254.267 1100.23,241.026L1100.23,172.016C1100.23,158.776 1102.64,147.943 1107.06,138.714C1111.87,129.888 1117.89,122.264 1125.11,116.647C1132.33,111.03 1139.95,107.018 1148.38,104.209C1156.81,101.802 1164.43,100.598 1171.65,100.598L1263.53,100.598C1276.37,100.598 1287.61,103.006 1296.83,107.82C1305.66,112.234 1313.28,118.252 1318.9,125.474C1324.52,132.696 1328.53,140.319 1330.94,148.745C1333.75,157.171 1334.95,164.794 1334.95,172.016L1334.95,241.026ZM1283.99,172.417C1283.99,165.195 1281.99,159.979 1278.78,156.769C1275.17,153.158 1269.95,151.554 1263.53,151.554L1172.05,151.554C1165.23,151.554 1160.02,153.56 1156.4,156.769C1152.79,160.38 1151.19,165.195 1151.19,172.016L1151.19,241.026C1151.19,247.446 1152.79,252.662 1156.4,256.273C1160.02,259.884 1165.23,261.489 1172.05,261.489L1263.53,261.489C1270.35,261.489 1275.57,259.884 1278.78,256.273C1282.39,252.662 1283.99,247.446 1283.99,241.026L1283.99,172.417Z" style="fill:white;fill-rule:nonzero;"/>
                        </g>
                        <g>
                            <path d="M1608.64,332.906C1608.64,341.733 1607.44,349.356 1605.03,356.177C1603.02,363.399 1600.21,369.417 1596.6,374.633C1592.59,380.251 1588.58,384.664 1583.76,388.275C1578.95,391.886 1573.73,395.096 1568.52,397.503C1563.3,399.91 1557.68,401.515 1552.47,402.719C1546.85,403.923 1542.04,404.324 1537.22,404.324L1445.34,404.324L1445.34,353.369L1537.22,353.369C1544.04,353.369 1549.26,351.764 1552.47,348.153C1556.08,344.542 1557.68,339.326 1557.68,332.906L1557.68,172.016C1557.68,165.195 1556.08,160.38 1552.47,156.769C1549.26,153.56 1544.04,151.554 1537.22,151.554L1445.34,151.554C1438.92,151.554 1434.11,153.56 1430.1,157.572C1426.49,161.183 1424.88,165.998 1424.88,172.016L1424.88,241.026C1424.88,247.446 1426.49,252.662 1430.1,256.273C1433.71,259.884 1438.92,261.489 1445.74,261.489L1537.22,261.489L1537.22,312.444L1445.34,312.444C1440.53,312.444 1435.31,312.043 1429.69,310.839C1424.48,309.635 1419.26,308.03 1413.65,305.623C1408.43,303.216 1403.62,300.407 1398.8,296.395C1393.99,292.784 1389.57,288.37 1385.96,283.155C1382.35,277.537 1379.54,271.519 1377.13,264.698C1375.13,257.476 1373.92,249.853 1373.92,241.026L1373.92,172.016C1373.92,167.201 1374.33,161.985 1375.53,156.769C1376.73,151.152 1378.34,145.936 1380.75,140.721C1383.15,135.505 1385.96,130.289 1389.57,125.474C1393.59,120.659 1398,116.647 1403.21,112.635C1408.43,109.024 1414.85,106.215 1421.67,103.808C1428.49,101.802 1436.52,100.598 1445.34,100.598L1537.22,100.598C1542.04,100.598 1546.85,101.401 1552.47,102.604C1557.68,103.407 1563.3,105.012 1568.52,107.419C1573.73,109.826 1578.95,113.036 1583.76,116.647C1588.58,120.258 1592.59,125.073 1596.6,130.289C1600.21,135.505 1603.02,141.523 1605.03,148.344C1607.44,155.566 1608.64,163.189 1608.64,172.016L1608.64,332.906Z" style="fill:white;fill-rule:nonzero;"/>
                        </g>
                        <g>
                            <path d="M1873.62,242.23C1873.62,249.452 1872.42,257.075 1870.01,265.1C1867.6,273.525 1863.59,280.747 1857.97,287.969C1852.36,294.79 1845.13,300.808 1836.31,305.222C1827.48,310.037 1816.65,312.444 1803.81,312.444L1711.93,312.444C1704.7,312.444 1697.08,311.24 1689.06,308.833C1680.63,306.426 1673.01,302.413 1666.19,296.796C1659.37,291.179 1653.35,283.957 1648.53,275.13C1644.12,265.902 1641.71,255.069 1641.71,242.23C1641.71,235.409 1642.92,227.786 1645.32,219.36C1647.73,211.336 1651.74,203.712 1657.36,196.49C1662.98,189.67 1670.2,183.651 1679.03,178.837C1688.26,174.423 1699.09,172.016 1711.93,172.016L1803.81,172.016L1803.81,220.564L1711.93,220.564C1704.7,220.564 1699.49,222.57 1695.88,226.983C1691.87,231.397 1689.86,236.613 1689.86,242.631C1689.86,249.452 1692.27,254.668 1696.68,258.279C1701.09,261.89 1706.31,263.896 1712.33,263.896L1803.81,263.896C1810.63,263.896 1815.84,261.89 1819.86,257.476C1823.47,253.464 1825.47,248.248 1825.47,241.829L1825.47,170.812C1825.47,163.991 1823.47,158.776 1819.05,154.763C1815.04,151.152 1809.83,149.146 1803.81,149.146L1691.87,149.146L1691.87,100.598L1803.81,100.598C1810.63,100.598 1818.25,101.802 1826.28,104.209C1834.7,107.018 1842.32,111.03 1849.14,116.647C1856.37,121.863 1861.98,129.085 1866.8,138.313C1871.61,147.14 1873.62,157.973 1873.62,170.812L1873.62,242.23Z" style="fill:white;fill-rule:nonzero;"/>
                        </g>
                        <g>
                            <path d="M2149.79,241.026C2149.79,249.853 2148.59,257.476 2146.18,264.698C2144.17,271.519 2141.36,277.537 2137.35,283.155C2133.74,288.37 2129.73,292.784 2124.91,296.395C2120.1,300.407 2114.88,303.216 2109.67,305.623C2104.45,308.03 2098.83,309.635 2093.62,310.839C2088,312.043 2082.79,312.444 2077.97,312.444L1986.09,312.444C1977.66,312.444 1969.64,311.24 1962.82,309.234C1956,306.827 1949.58,304.018 1944.36,300.407C1939.15,296.395 1934.73,292.383 1930.72,287.167C1927.11,282.352 1924.3,277.537 1921.89,272.322C1919.49,267.106 1917.88,261.489 1916.68,256.273C1915.48,250.656 1915.07,245.44 1915.07,241.026L1915.07,172.016C1915.07,158.776 1917.48,147.943 1921.89,138.714C1926.71,129.888 1932.73,122.264 1939.95,116.647C1947.17,111.03 1954.8,107.018 1963.22,104.209C1971.65,101.802 1979.27,100.598 1986.09,100.598L2077.97,100.598L2077.97,151.554L1986.49,151.554C1979.67,151.554 1974.86,153.56 1971.25,156.769C1967.63,160.38 1966.03,165.195 1966.03,172.016L1966.03,240.625C1966.03,247.446 1967.63,252.662 1970.84,256.273C1974.46,259.884 1979.67,261.489 1986.09,261.489L2077.97,261.489C2085.19,261.489 2090.41,259.884 2093.62,256.273C2096.83,252.662 2098.83,247.446 2098.83,241.026L2098.83,11.126L2149.79,11.126L2149.79,241.026Z" style="fill:white;fill-rule:nonzero;"/>
                        </g>
                        <g>
                            <path d="M2428.72,332.906C2428.72,341.733 2427.52,349.356 2425.11,356.177C2423.1,363.399 2420.29,369.417 2416.68,374.633C2412.67,380.251 2408.66,384.664 2403.84,388.275C2399.03,391.886 2393.81,395.096 2388.6,397.503C2383.38,399.91 2377.76,401.515 2372.55,402.719C2366.93,403.923 2362.12,404.324 2357.3,404.324L2265.42,404.324L2265.42,353.369L2357.3,353.369C2364.12,353.369 2369.34,351.764 2372.55,348.153C2376.16,344.542 2377.76,339.326 2377.76,332.906L2377.76,172.016C2377.76,165.195 2376.16,160.38 2372.55,156.769C2369.34,153.56 2364.12,151.554 2357.3,151.554L2265.42,151.554C2259,151.554 2254.19,153.56 2250.18,157.572C2246.57,161.183 2244.96,165.998 2244.96,172.016L2244.96,241.026C2244.96,247.446 2246.57,252.662 2250.18,256.273C2253.79,259.884 2259,261.489 2265.82,261.489L2357.3,261.489L2357.3,312.444L2265.42,312.444C2260.61,312.444 2255.39,312.043 2249.77,310.839C2244.56,309.635 2239.34,308.03 2233.72,305.623C2228.51,303.216 2223.7,300.407 2218.88,296.395C2214.07,292.784 2209.65,288.37 2206.04,283.155C2202.43,277.537 2199.62,271.519 2197.21,264.698C2195.21,257.476 2194,249.853 2194,241.026L2194,172.016C2194,167.201 2194.41,161.985 2195.61,156.769C2196.81,151.152 2198.42,145.936 2200.83,140.721C2203.23,135.505 2206.04,130.289 2209.65,125.474C2213.66,120.659 2218.08,116.647 2223.29,112.635C2228.51,109.024 2234.93,106.215 2241.75,103.808C2248.57,101.802 2256.6,100.598 2265.42,100.598L2357.3,100.598C2362.12,100.598 2366.93,101.401 2372.55,102.604C2377.76,103.407 2383.38,105.012 2388.6,107.419C2393.81,109.826 2399.03,113.036 2403.84,116.647C2408.66,120.258 2412.67,125.073 2416.68,130.289C2420.29,135.505 2423.1,141.523 2425.11,148.344C2427.52,155.566 2428.72,163.189 2428.72,172.016L2428.72,332.906Z" style="fill:white;fill-rule:nonzero;"/>
                        </g>
                        <g>
                            <path d="M2702.93,170.812C2702.93,178.034 2701.73,185.657 2699.32,193.682C2696.91,201.706 2692.9,209.33 2687.28,216.552C2681.66,223.372 2674.44,228.99 2665.62,233.804C2656.79,238.619 2645.96,241.026 2633.12,241.026L2541.24,241.026L2541.24,192.478L2633.12,192.478C2639.94,192.478 2645.15,190.472 2649.17,186.46C2652.78,182.046 2654.78,176.831 2654.78,170.411C2654.78,163.59 2652.38,158.374 2648.36,154.763C2643.95,150.751 2639.14,149.146 2633.12,149.146L2541.24,149.146C2534.01,149.146 2528.8,151.152 2525.19,155.566C2521.18,159.578 2519.17,164.794 2519.17,171.213L2519.17,242.23C2519.17,249.051 2521.58,254.267 2525.59,258.279C2530,261.89 2535.22,263.896 2541.64,263.896L2633.12,263.896L2633.12,312.444L2541.24,312.444C2534.01,312.444 2526.39,311.24 2518.37,308.833C2509.94,306.426 2502.32,302.413 2495.5,296.796C2488.68,291.179 2482.66,283.957 2477.84,275.13C2473.43,265.902 2471.02,255.069 2471.02,242.23L2471.02,170.812C2471.02,163.59 2472.23,156.368 2474.63,147.943C2477.04,139.918 2481.05,132.295 2486.67,125.474C2492.29,118.252 2499.51,112.234 2508.34,107.82C2517.56,103.006 2528.4,100.598 2541.24,100.598L2633.12,100.598C2639.94,100.598 2647.56,101.802 2655.59,104.209C2664.01,107.018 2671.63,111.03 2678.45,116.647C2685.28,121.863 2691.29,129.085 2696.11,138.313C2700.92,147.14 2702.93,157.973 2702.93,170.812Z" style="fill:white;fill-rule:nonzero;"/>
                        </g>
                        <g>
                            <path d="M2930.15,151.554L2841.08,151.554L2841.08,312.444L2789.32,312.444L2789.32,151.554L2723.12,151.554L2723.12,100.598L2789.32,100.598L2789.32,31.588L2841.08,31.588L2841.08,100.598L2930.15,100.598L2930.15,151.554Z" style="fill:white;fill-rule:nonzero;"/>
                        </g>
                    </g>
                    <g id="Icon">
                        <path d="M392.811,84.095C392.811,84.095 430.691,54.076 452.172,43.97C474.6,33.42 527.379,20.789 527.379,20.789C527.379,20.789 557.08,204.792 587.512,239.208C594.252,246.831 630.078,244.251 667.974,260.56C697.395,273.223 715.775,281.512 715.775,281.512C715.775,281.512 609.419,383.77 392.811,387.271C160.583,391.025 69.848,286.776 69.848,286.776C69.848,286.776 98.303,270.914 129.505,259.984C152.97,251.764 178.735,250.076 190.959,239.208C228.019,206.257 244.786,20.454 244.786,20.454C244.786,20.454 299.391,31.259 324.062,41.866C348.637,52.432 392.811,84.095 392.811,84.095Z" style="fill:rgb(40,143,240);"/>
                        <path d="M382.099,86.881C364.384,104.52 359.406,139.763 358.086,163.144C356.817,185.657 376.437,245.652 362.965,272.691C344.558,309.632 309.846,347.957 181.238,353.14C168.341,353.659 70.555,294.477 70.555,294.477L115.895,267.449L188.751,242.192L207.833,215.937L228.772,128.967L248.52,23.399C248.52,23.399 403.476,65.597 382.099,86.881Z" style="fill:rgb(14,73,128);"/>
                        <path d="M204.416,225.107C204.416,225.107 275.377,265.575 392.175,267.411C508.972,269.246 581.206,225.107 581.206,225.107" style="fill:none;stroke:rgb(0,31,60);stroke-width:71.05px;"/>
                        <path d="M392.811,84.095C392.811,84.095 430.691,54.076 452.172,43.97C474.6,33.42 527.379,20.789 527.379,20.789C527.379,20.789 557.08,204.792 587.512,239.208C594.252,246.831 630.078,244.251 667.974,260.56C697.395,273.223 715.775,281.512 715.775,281.512C715.775,281.512 609.419,383.77 392.811,387.271C160.583,391.025 69.848,286.776 69.848,286.776C69.848,286.776 98.303,270.914 129.505,259.984C152.97,251.764 178.735,250.076 190.959,239.208C228.019,206.257 244.786,20.454 244.786,20.454C244.786,20.454 299.391,31.259 324.062,41.866C348.637,52.432 392.811,84.095 392.811,84.095Z" style="fill:none;stroke:rgb(7,50,90);stroke-width:27.46px;stroke-linecap:round;"/>
                    </g>
                </g>
            </g>
        </g>
    </g>
</svg>
