<?xml version="1.0" encoding="utf-8"?>
<!-- Generator: Adobe Illustrator 26.0.2, SVG Export Plug-In . SVG Version: 6.00 Build 0)  -->
<svg version="1.1" id="Layer_1" xmlns="http://www.w3.org/2000/svg" xmlns:xlink="http://www.w3.org/1999/xlink" x="0px" y="0px"
	 viewBox="0 0 16 16" style="enable-background:new 0 0 16 16;" xml:space="preserve">
<style type="text/css">
	.st0{fill:#5C6D8E;}
</style>
<g>
	<g id="Group_2152_00000048502975689454039990000008156259910645266828_" transform="translate(-52.758 -199.474)">
		<g id="사각형_179_00000118368642781868069120000004956969599308414090_">
			<g id="Group_933_00000028283702842616638260000017439225240476368282_">
				<path id="Path_2414_00000063634828718837070450000004336304467843636400_" class="st0" d="M65.6,215.5H56
					c-1.8,0-3.2-1.4-3.2-3.2v-9.6c0-1.8,1.4-3.2,3.2-3.2h9.6c1.8,0,3.2,1.4,3.2,3.2v9.6C68.8,214,67.3,215.5,65.6,215.5z M56,200.1
					c-1.4,0-2.6,1.1-2.6,2.6v9.6c0,1.4,1.1,2.6,2.6,2.6h9.6c1.4,0,2.6-1.1,2.6-2.6v-9.6c0-1.4-1.1-2.6-2.6-2.6H56z"/>
			</g>
		</g>
	</g>
	<g>
		<path class="st0" d="M2.1,12.1l5.1-1.9l0.7,1.7H9L5.6,3.8L2.1,12.1z M3.8,10.5l1.8-4.2l1.3,3.1L3.8,10.5z"/>
		<path class="st0" d="M12,7.2L11.5,7c-0.6-0.2-1-0.6-1-1c0-0.6,0.6-0.9,1.1-0.9c0.5,0,0.8,0.2,1.1,0.6l0.1,0.1l0.9-0.5l0-0.1
			c-0.4-0.8-1.1-1.2-2-1.2c-1.1,0-2.3,0.7-2.3,2c0,1.1,0.8,1.6,1.7,2l0.5,0.2c0.6,0.3,1.2,0.6,1.2,1.3c0,0.7-0.6,1.3-1.3,1.3
			c-0.4,0-0.7-0.1-1-0.4c-0.2-0.2-0.4-0.6-0.4-0.9l0-0.1L9.1,9.7l0,0.1c0.2,1.2,1.2,2.1,2.4,2.1c1.4,0,2.5-1,2.5-2.4
			C13.9,8.2,12.9,7.6,12,7.2z"/>
	</g>
</g>
</svg>
