<?xml version="1.0" encoding="UTF-8" standalone="no"?>
<!-- Generator: Adobe Illustrator 16.0.4, SVG Export Plug-In . SVG Version: 6.00 Build 0)  -->

<svg
   xmlns:dc="http://purl.org/dc/elements/1.1/"
   xmlns:cc="http://creativecommons.org/ns#"
   xmlns:rdf="http://www.w3.org/1999/02/22-rdf-syntax-ns#"
   xmlns:svg="http://www.w3.org/2000/svg"
   xmlns="http://www.w3.org/2000/svg"
   xmlns:sodipodi="http://sodipodi.sourceforge.net/DTD/sodipodi-0.dtd"
   xmlns:inkscape="http://www.inkscape.org/namespaces/inkscape"
   version="1.1"
   id="Calque_1"
   x="0px"
   y="0px"
   width="347.24799"
   height="94.918999"
   viewBox="0 0 347.24799 94.918997"
   enable-background="new 0 0 456 222.667"
   xml:space="preserve"
   inkscape:version="0.92.2 (5c3e80d, 2017-08-06)"
   sodipodi:docname="logo-publik.svg"
   inkscape:export-filename="/tmp/logo-publik.png"
   inkscape:export-xdpi="30.34"
   inkscape:export-ydpi="30.34"><metadata
     id="metadata167"><rdf:RDF><cc:Work
         rdf:about=""><dc:format>image/svg+xml</dc:format><dc:type
           rdf:resource="http://purl.org/dc/dcmitype/StillImage" /><dc:title></dc:title></cc:Work></rdf:RDF></metadata><defs
     id="defs165" /><sodipodi:namedview
     pagecolor="#ffffff"
     bordercolor="#666666"
     borderopacity="1"
     objecttolerance="10"
     gridtolerance="10"
     guidetolerance="10"
     inkscape:pageopacity="0"
     inkscape:pageshadow="2"
     inkscape:window-width="1600"
     inkscape:window-height="836"
     id="namedview163"
     showgrid="false"
     fit-margin-left="5"
     fit-margin-right="5"
     fit-margin-bottom="5"
     fit-margin-top="5"
     inkscape:zoom="0.97368421"
     inkscape:cx="-59.097108"
     inkscape:cy="30.879493"
     inkscape:window-x="0"
     inkscape:window-y="27"
     inkscape:window-maximized="1"
     inkscape:current-layer="Calque_1"
     inkscape:pagecheckerboard="true" /><g
     id="g43"
     transform="translate(-54.989,-47.294)"
     style="fill:#ffffff"><path
       d="m 85.012,76.457 c -5.516,0 -9.71,2.641 -12.188,5.087 -1.489,-2.239 -4.211,-4.172 -9.174,-4.172 h -1.293 l -2.368,8.724 H 62.2 c 1.996,0 2.81,0.902 2.81,3.115 v 48.002 h 10.249 v -18.822 c 2.333,1.466 5.73,2.953 9.905,2.953 10.66,0 19.01,-10.026 19.01,-22.825 10e-4,-14.484 -9.639,-22.062 -19.162,-22.062 z m 8.761,22.29 c 0,7.842 -4.011,13.11 -9.981,13.11 -3.819,0 -6.688,-1.931 -8.532,-3.731 V 89.864 c 1.713,-2.09 4.805,-4.074 8.227,-4.074 6.056,0 10.286,5.328 10.286,12.957 z"
       id="path45"
       inkscape:connector-curvature="0"
       style="fill:#ffffff" /><path
       d="M 146.137,108.437 V 77.372 h -10.249 v 30.762 c -2.8,2.374 -6.262,3.724 -9.6,3.724 -1.506,0 -6.091,0 -6.091,-7.922 V 77.372 h -10.249 v 27.479 c 0,7.973 3.952,16.493 15.043,16.493 4.667,0 9.254,-1.765 13.136,-5.016 1.425,2.375 4.158,4.482 9.371,4.482 h 1.293 l 2.368,-8.724 h -2.212 c -1.481,0 -2.81,-0.279 -2.81,-3.649 z"
       id="path47"
       inkscape:connector-curvature="0"
       style="fill:#ffffff" /><path
       d="m 176.414,76.457 c -4.258,0 -7.545,1.534 -9.752,3.047 V 60.588 h -10.25 v 59.84 h 9.792 v -1.72 c 2.569,1.467 5.972,2.636 9.753,2.636 12.119,0 19.62,-11.848 19.62,-22.825 -0.001,-14.484 -9.641,-22.062 -19.163,-22.062 z m 8.76,22.29 c 0,7.842 -4.44,13.11 -11.049,13.11 -2.706,0 -5.325,-0.785 -7.464,-2.224 v -19.77 c 1.713,-2.09 4.805,-4.074 8.227,-4.074 6.056,0.001 10.286,5.329 10.286,12.958 z"
       id="path49"
       inkscape:connector-curvature="0"
       style="fill:#ffffff" /><path
       d="m 220.97,111.011 c -1.086,0.483 -2.86,0.999 -4.578,0.999 -1.186,0 -4.793,0 -4.793,-6.396 V 60.588 H 201.35 v 45.713 c 0,9.56 5.149,15.043 14.127,15.043 4.263,0 7.195,-1.053 8.563,-1.68 l 1.34,-0.615 -2.657,-8.817 z"
       id="path51"
       inkscape:connector-curvature="0"
       style="fill:#ffffff" /><rect
       x="228.129"
       y="77.372002"
       width="10.25"
       height="43.056"
       id="rect53"
       style="fill:#ffffff" /><path
       d="m 233.254,60.969 c -3.887,0 -6.498,2.611 -6.498,6.498 0,3.583 2.915,6.498 6.498,6.498 3.887,0 6.498,-2.611 6.498,-6.498 0,-3.583 -2.915,-6.498 -6.498,-6.498 z"
       id="path55"
       inkscape:connector-curvature="0"
       style="fill:#ffffff" /><polygon
       points="247.204,60.588 247.204,120.428 257.453,120.428 257.453,102.536 276.248,121.889 283.426,114.942 264.79,96.304 280.064,82.778 273.804,75.915 257.453,90.736 257.453,60.588 "
       id="polygon57"
       style="fill:#ffffff" /></g><g
     id="g59"
     transform="translate(-54.989,-47.294)"
     style="fill:#ffffff"><rect
       x="301.655"
       y="80.337997"
       width="13.865"
       height="39.826"
       id="rect61"
       style="fill:#ffffff" /><rect
       x="304.125"
       y="83.203003"
       width="3.3080001"
       height="4.8280001"
       id="rect63"
       style="fill:#ffffff" /><rect
       x="309.67401"
       y="83.203003"
       width="3.306"
       height="4.8280001"
       id="rect65"
       style="fill:#ffffff" /><rect
       x="304.125"
       y="90.278"
       width="3.3080001"
       height="4.8270001"
       id="rect67"
       style="fill:#ffffff" /><rect
       x="309.67401"
       y="90.278"
       width="3.306"
       height="4.8270001"
       id="rect69"
       style="fill:#ffffff" /><rect
       x="304.125"
       y="97.353996"
       width="3.3080001"
       height="4.8270001"
       id="rect71"
       style="fill:#ffffff" /><rect
       x="309.67401"
       y="97.353996"
       width="3.306"
       height="4.8270001"
       id="rect73"
       style="fill:#ffffff" /><rect
       x="304.125"
       y="104.428"
       width="3.3080001"
       height="4.8260002"
       id="rect75"
       style="fill:#ffffff" /><rect
       x="309.67401"
       y="104.428"
       width="3.306"
       height="4.8260002"
       id="rect77"
       style="fill:#ffffff" /></g><g
     id="g79"
     transform="translate(-54.989,-47.294)"
     style="fill:#ffffff"><rect
       x="321.673"
       y="59.263"
       width="13.867"
       height="60.901001"
       id="rect81"
       style="fill:#ffffff" /><rect
       x="324.14401"
       y="61.875999"
       width="3.3110001"
       height="4.8239999"
       id="rect83"
       style="fill:#ffffff" /><rect
       x="329.69199"
       y="61.875999"
       width="3.3080001"
       height="4.8239999"
       id="rect85"
       style="fill:#ffffff" /><rect
       x="324.14401"
       y="68.946999"
       width="3.3110001"
       height="4.829"
       id="rect87"
       style="fill:#ffffff" /><rect
       x="329.69199"
       y="68.946999"
       width="3.3080001"
       height="4.829"
       id="rect89"
       style="fill:#ffffff" /><rect
       x="324.14401"
       y="76.022003"
       width="3.3110001"
       height="4.8270001"
       id="rect91"
       style="fill:#ffffff" /><rect
       x="329.69199"
       y="76.022003"
       width="3.3080001"
       height="4.8270001"
       id="rect93"
       style="fill:#ffffff" /><rect
       x="324.14401"
       y="83.095001"
       width="3.3110001"
       height="4.829"
       id="rect95"
       style="fill:#ffffff" /><rect
       x="329.69199"
       y="83.095001"
       width="3.3080001"
       height="4.829"
       id="rect97"
       style="fill:#ffffff" /><rect
       x="324.14401"
       y="90.171997"
       width="3.3110001"
       height="4.8280001"
       id="rect99"
       style="fill:#ffffff" /><rect
       x="329.69199"
       y="90.171997"
       width="3.3080001"
       height="4.8280001"
       id="rect101"
       style="fill:#ffffff" /><rect
       x="324.14401"
       y="97.245003"
       width="3.3110001"
       height="4.8260002"
       id="rect103"
       style="fill:#ffffff" /><rect
       x="329.69199"
       y="97.245003"
       width="3.3080001"
       height="4.8260002"
       id="rect105"
       style="fill:#ffffff" /></g><g
     id="g107"
     transform="translate(-54.989,-47.294)"
     style="fill:#ffffff"><rect
       x="363.26901"
       y="68.167999"
       width="13.859"
       height="51.997002"
       id="rect109"
       style="fill:#ffffff" /><rect
       x="365.73401"
       y="70.480003"
       width="3.3110001"
       height="4.8299999"
       id="rect111"
       style="fill:#ffffff" /><rect
       x="371.28299"
       y="70.480003"
       width="3.3050001"
       height="4.8299999"
       id="rect113"
       style="fill:#ffffff" /><rect
       x="365.73401"
       y="77.556999"
       width="3.3110001"
       height="4.8260002"
       id="rect115"
       style="fill:#ffffff" /><rect
       x="371.28299"
       y="77.556999"
       width="3.3050001"
       height="4.8260002"
       id="rect117"
       style="fill:#ffffff" /><rect
       x="365.73401"
       y="84.629997"
       width="3.3110001"
       height="4.8260002"
       id="rect119"
       style="fill:#ffffff" /><rect
       x="371.28299"
       y="84.629997"
       width="3.3050001"
       height="4.8260002"
       id="rect121"
       style="fill:#ffffff" /><rect
       x="365.73401"
       y="91.707001"
       width="3.3110001"
       height="4.8260002"
       id="rect123"
       style="fill:#ffffff" /><rect
       x="371.28299"
       y="91.707001"
       width="3.3050001"
       height="4.8260002"
       id="rect125"
       style="fill:#ffffff" /><rect
       x="365.73401"
       y="98.778999"
       width="3.3110001"
       height="4.8260002"
       id="rect127"
       style="fill:#ffffff" /></g><g
     id="g129"
     transform="translate(-54.989,-47.294)"
     style="fill:#ffffff"><rect
       x="383.37799"
       y="59.263"
       width="13.859"
       height="60.901001"
       id="rect131"
       style="fill:#ffffff" /><rect
       x="385.845"
       y="61.875999"
       width="3.3080001"
       height="4.8239999"
       id="rect133"
       style="fill:#ffffff" /><rect
       x="391.39401"
       y="61.875999"
       width="3.309"
       height="4.8239999"
       id="rect135"
       style="fill:#ffffff" /><rect
       x="385.845"
       y="68.946999"
       width="3.3080001"
       height="4.829"
       id="rect137"
       style="fill:#ffffff" /><rect
       x="391.39401"
       y="68.946999"
       width="3.309"
       height="4.829"
       id="rect139"
       style="fill:#ffffff" /><rect
       x="385.845"
       y="76.022003"
       width="3.3080001"
       height="4.8270001"
       id="rect141"
       style="fill:#ffffff" /><rect
       x="391.39401"
       y="76.022003"
       width="3.309"
       height="4.8270001"
       id="rect143"
       style="fill:#ffffff" /><rect
       x="385.845"
       y="83.095001"
       width="3.3080001"
       height="4.829"
       id="rect145"
       style="fill:#ffffff" /><rect
       x="391.39401"
       y="83.095001"
       width="3.309"
       height="4.829"
       id="rect147"
       style="fill:#ffffff" /><rect
       x="385.845"
       y="90.171997"
       width="3.3080001"
       height="4.8280001"
       id="rect149"
       style="fill:#ffffff" /><rect
       x="391.39401"
       y="90.171997"
       width="3.309"
       height="4.8280001"
       id="rect151"
       style="fill:#ffffff" /><rect
       x="385.845"
       y="97.245003"
       width="3.3080001"
       height="4.8260002"
       id="rect153"
       style="fill:#ffffff" /><rect
       x="391.39401"
       y="97.245003"
       width="3.309"
       height="4.8260002"
       id="rect155"
       style="fill:#ffffff" /></g><g
     id="g157"
     transform="translate(-54.989,-47.294)"
     style="fill:#ffffff"><rect
       x="341.79199"
       y="59.155998"
       width="15.234"
       height="61.008999"
       id="rect159"
       style="opacity:0.3;fill:#ffffff" /><polygon
       points="341.692,59.263 341.692,120.165 351.413,124.406 351.413,52.294 "
       id="polygon161"
       style="fill:#ffffff" /></g></svg>