<?xml version="1.0" encoding="utf-8"?>
<!-- Generator: Adobe Illustrator 26.0.2, SVG Export Plug-In . SVG Version: 6.00 Build 0)  -->
<svg version="1.1" id="Layer_1" xmlns="http://www.w3.org/2000/svg" xmlns:xlink="http://www.w3.org/1999/xlink" x="0px" y="0px"
	 viewBox="0 0 16 16" style="enable-background:new 0 0 16 16;" xml:space="preserve">
<style type="text/css">
	.st0{fill:#5C6D8E;}
</style>
<g>
	<g>
		<path class="st0" d="M1.1,12.2l5.1-1.9L6.9,12h1.1L4.5,3.9L1.1,12.2z M2.8,10.6l1.8-4.2l1.3,3.1L2.8,10.6z"/>
		<path class="st0" d="M14.9,8l0-0.3h-0.8L9.5,9.3l0.3,0.9l4.1-1.5c-0.3,1.3-1.4,2.2-2.7,2.2c-1.5,0-2.8-1.3-2.8-2.9
			s1.2-2.9,2.8-2.9c0.9,0,1.7,0.4,2.2,1.1l0.3,0.4l0.5-0.9l-0.1-0.2c-0.7-0.9-1.8-1.4-2.9-1.4c-2.1,0-3.7,1.7-3.7,3.8
			S9.1,12,11.2,12c2.1,0,3.7-1.7,3.7-3.8C14.9,8.1,14.9,8,14.9,8z"/>
	</g>
	<g id="Group_2152_00000103984941006798504560000012758944682104609933_" transform="translate(-52.758 -199.474)">
		<g id="사각형_179_00000145040329177607875410000001918217130169951910_">
			<g id="Group_933_00000124141382158935006380000012799669773471824041_">
				<path id="Path_2414_00000179645654545156927560000017255475086444394628_" class="st0" d="M65.6,215.5H56
					c-1.8,0-3.2-1.4-3.2-3.2v-9.6c0-1.8,1.4-3.2,3.2-3.2h9.6c1.8,0,3.2,1.4,3.2,3.2v9.6C68.8,214,67.3,215.5,65.6,215.5z M56,200.1
					c-1.4,0-2.6,1.1-2.6,2.6v9.6c0,1.4,1.1,2.6,2.6,2.6h9.6c1.4,0,2.6-1.1,2.6-2.6v-9.6c0-1.4-1.1-2.6-2.6-2.6H56z"/>
			</g>
		</g>
	</g>
</g>
</svg>
