<?xml version="1.0" encoding="utf-8"?>
<!-- Generator: Adobe Illustrator 26.0.2, SVG Export Plug-In . SVG Version: 6.00 Build 0)  -->
<svg version="1.1" id="Layer_1" xmlns="http://www.w3.org/2000/svg" xmlns:xlink="http://www.w3.org/1999/xlink" x="0px" y="0px"
	 viewBox="0 0 16 16" style="enable-background:new 0 0 16 16;" xml:space="preserve">
<style type="text/css">
	.st0{fill:#5C6D8E;}
</style>
<g>
	<path class="st0" d="M11.3,5.5"/>
	<path class="st0" d="M2.9,11.8C2.5,10.9,2.3,10,2.3,9.1V4c0-0.2,0.1-0.4,0.2-0.6C2.6,3.2,2.8,3.1,3,3l5.4-2.5L7.3,0
		C7.2,0,7,0,6.9,0L1.3,2.6C1.2,2.6,1.1,2.7,1,2.8C1,2.9,1,3,1,3.1v5.2c0,0.9,0.2,1.7,0.6,2.5c0.4,0.8,0.9,1.4,1.6,1.9l0.7,0.5
		C3.5,12.7,3.2,12.3,2.9,11.8z"/>
	<g>
		<g>
			<path class="st0" d="M14.7,3.5L9.2,1C9.1,1,9,1,8.8,1L3.3,3.5c-0.1,0-0.2,0.1-0.2,0.2C3.1,3.8,3,3.9,3,4v5.1
				c0,0.8,0.2,1.7,0.6,2.4c0.4,0.7,0.9,1.4,1.6,1.9l3.5,2.6h0C8.8,16,8.9,16,9,16s0.2,0,0.3-0.1l3.5-2.6h0c0.7-0.5,1.2-1.1,1.6-1.9
				S15,9.9,15,9.1V4c0-0.1,0-0.2-0.1-0.3C14.9,3.7,14.8,3.6,14.7,3.5L14.7,3.5z M14,9.1c0,1.4-0.7,2.7-1.8,3.5L9,14.9l-3.2-2.4
				C4.7,11.7,4,10.4,4,9.1V4.3l5-2.3l5,2.3L14,9.1z"/>
		</g>
	</g>
	<path class="st0" d="M11.4,9.2L11.4,9.2c0,0-0.1,0.1-0.2,0.1c-0.1,0-0.2,0-0.2-0.1C11,9,10.9,9,11,8.9c0-0.1,0-0.1,0.1-0.2l0.4-0.3
		l-0.4-0.3C11,8.1,11,8,11,7.9c0-0.1,0-0.1,0-0.2c0.1-0.1,0.3-0.2,0.4-0.1l0.3,0.2V7.6c0-0.1,0.1-0.2,0.3-0.2s0.3,0.1,0.3,0.2v0.3
		l0.3-0.2v0c0.1,0,0.1-0.1,0.2,0c0.1,0,0.1,0.1,0.2,0.1C13,7.8,13,8,12.9,8.1l-0.4,0.3l0.4,0.3v0c0.1,0,0.1,0.1,0.1,0.2
		s0,0.1-0.1,0.2c0,0.1-0.1,0.1-0.2,0.1c-0.1,0-0.1,0-0.2-0.1l-0.3-0.2v0.3c0,0.1,0,0.2-0.1,0.2C12.1,9.5,12,9.5,12,9.5
		c-0.1,0-0.1,0-0.2-0.1c-0.1-0.1-0.1-0.1-0.1-0.2V8.9L11.4,9.2z M8.4,9.2L8.4,9.2c0,0-0.1,0.1-0.2,0.1c-0.1,0-0.2,0-0.2-0.1
		C8,9,8,9,8,8.9c0-0.1,0-0.1,0.1-0.2l0.4-0.3L8.1,8.1C8.1,8.1,8,8,8,7.9c0-0.1,0-0.2,0-0.2c0-0.1,0.1-0.1,0.2-0.1
		c0.1,0,0.2,0,0.2,0.1l0.3,0.2V7.6c0-0.1,0.1-0.3,0.3-0.3s0.3,0.1,0.3,0.3v0.3l0.3-0.2v0C9.7,7.6,9.9,7.6,10,7.7
		C10.1,7.8,10,8,9.9,8.1L9.5,8.4l0.4,0.3v0C10,8.8,10,8.8,10,8.9S10,9,10,9.1c0,0.1-0.1,0.1-0.2,0.1c-0.1,0-0.1,0-0.2-0.1L9.3,8.9
		v0.3c0,0.1-0.1,0.3-0.3,0.3S8.8,9.4,8.8,9.2V8.9L8.4,9.2z M5.2,8.1C5.1,8.1,5.1,8,5.1,7.9c0-0.1,0-0.1,0-0.2
		c0.1-0.1,0.3-0.2,0.4-0.1l0.3,0.2V7.6c0-0.1,0.1-0.2,0.3-0.2c0.1,0,0.3,0.1,0.3,0.2v0.3l0.3-0.2v0c0.1,0,0.1-0.1,0.2,0
		C7,7.6,7,7.7,7.1,7.7C7.1,7.8,7.1,8,7,8.1L6.6,8.4L7,8.7l0,0c0.1,0,0.1,0.1,0.1,0.2c0,0.1,0,0.1-0.1,0.2c0,0.1-0.1,0.1-0.2,0.1
		c-0.1,0-0.1,0-0.2-0.1L6.4,8.9v0.3c0,0.1,0,0.2-0.1,0.2C6.2,9.5,6.2,9.5,6.1,9.5s-0.1,0-0.2-0.1C5.8,9.4,5.8,9.3,5.8,9.2V8.9
		L5.5,9.2c0,0-0.1,0.1-0.2,0.1c-0.1,0-0.2,0-0.2-0.1C5.1,9,5.1,8.8,5.2,8.7l0.4-0.3L5.2,8.1z"/>
</g>
</svg>
