<?xml version="1.0" encoding="utf-8"?>
<!-- Generator: Adobe Illustrator 26.0.2, SVG Export Plug-In . SVG Version: 6.00 Build 0)  -->
<svg version="1.1" id="Layer_1" xmlns="http://www.w3.org/2000/svg" xmlns:xlink="http://www.w3.org/1999/xlink" x="0px" y="0px"
	 viewBox="0 0 16 16" style="enable-background:new 0 0 16 16;" xml:space="preserve">
<style type="text/css">
	.st0{fill:#5C6D8E;}
</style>
<g>
	<path class="st0" d="M5.5,10.8c0-0.2,0-0.3,0-0.5h-4c-0.1,0-0.2-0.1-0.2-0.2c0,0,0,0,0,0L2.7,5c0-0.2,0.2-0.3,0.3-0.3l9.9,0
		c0.1,0,0.2,0.1,0.2,0.2c0,0,0,0,0,0L13,5.4c0.3,0.1,0.6,0.2,0.8,0.3l0.2-1c0-0.1,0-0.1,0-0.2c0-0.4-0.3-0.7-0.7-0.7h-0.7
		c-0.1,0-0.2-0.1-0.2-0.2V2.1c0-0.5-0.4-0.9-0.9-0.9H4.6c0,0-0.1,0-0.1,0L3.7,0.6C3.6,0.5,3.4,0.4,3.2,0.4H0.9l0,0
		C0.4,0.4,0,0.8,0,1.3v9c0,0.5,0.4,0.9,0.9,0.9h4.6C5.5,11.1,5.5,10.9,5.5,10.8z M0.9,8.2C0.9,8.2,0.9,8.2,0.9,8.2L0.9,1.4
		c0-0.1,0.1-0.2,0.2-0.2l2.1,0c0,0,0.1,0,0.1,0L4,1.9c0.2,0.1,0.4,0.2,0.6,0.2h7c0.1,0,0.2,0.1,0.2,0.2v1.4c0,0.1-0.1,0.2-0.2,0.2
		H2.8C2.4,3.9,2.1,4.1,2,4.5L0.9,8.2C1,8.2,1,8.2,0.9,8.2z"/>
	<g>
		<rect x="9.5" y="10.3" class="st0" width="3.5" height="3"/>
		<path class="st0" d="M11.2,6c-2.6,0-4.8,2.1-4.8,4.8c0,2.6,2.1,4.8,4.8,4.8c2.6,0,4.8-2.1,4.8-4.8C16,8.2,13.9,6,11.2,6z
			 M13.6,13.5c0,0.3-0.2,0.5-0.5,0.5H9.3c-0.3,0-0.5-0.2-0.5-0.5v-3.3c0-0.3,0.2-0.5,0.5-0.5l0,0V8.8c0-1,0.8-1.8,1.8-1.8
			S13,7.8,13,8.8v0.9l0,0c0.3,0,0.5,0.2,0.5,0.5V13.5z"/>
		<path class="st0" d="M12.3,9.6V8.8c0-0.6-0.5-1.2-1.2-1.2c-0.6,0-1.2,0.5-1.2,1.2l0,0.9H12.3z"/>
	</g>
</g>
</svg>
