<?xml version="1.0" encoding="utf-8"?>
<!-- Generator: Adobe Illustrator 26.0.2, SVG Export Plug-In . SVG Version: 6.00 Build 0)  -->
<svg version="1.1" id="Layer_1" xmlns="http://www.w3.org/2000/svg" xmlns:xlink="http://www.w3.org/1999/xlink" x="0px" y="0px"
	 viewBox="0 0 16 16" style="enable-background:new 0 0 16 16;" xml:space="preserve">
<style type="text/css">
	.st0{fill:#5C6D8E;}
</style>
<g>
	<path class="st0" d="M7.0682693,11.7760887l0.0130787-0.008234l-0.0518303-0.0435953
		c-0.0184069-0.015501-0.0382671-0.0295486-0.0581269-0.0435953c-0.0140476-0.0096884-0.0280952-0.0198603-0.0411735-0.0300331
		c-0.02422-0.0193758-0.048924-0.0372982-0.0741124-0.0552206l-0.0392361-0.0280952
		c-0.1332078-0.0988159-0.2717447-0.1889133-0.4122186-0.2673845c-0.0440798-0.0251884-0.0876751-0.049408-0.1327238-0.072175
		c-0.1603341-0.0828314-0.3327785-0.1554899-0.5129728-0.2165241c-0.0096879-0.0033903-0.0193758-0.0072651-0.0290637-0.0111408
		c-0.0130782-0.0048437-0.0261569-0.0101719-0.0397201-0.0145311c-0.162756-0.0513458-0.31534-0.0905819-0.4611425-0.1181927
		c0.8699708-0.3870306,1.4425235-1.2579699,1.4425235-2.2209435c0-1.3412857-1.0903692-2.4326243-2.430686-2.4326243H4.107172
		c-1.3412855,0-2.4326239,1.0913386-2.4326239,2.4326243c0,0.9595833,0.5711,1.8295536,1.4391329,2.2180376
		c-0.150162,0.0280943-0.3071055,0.0678148-0.4761589,0.1210985c-0.0135629,0.0043592-0.0266416,0.0096874-0.0397201,0.0145311
		c-0.0092037,0.0038757-0.0188913,0.0077505-0.0290637,0.0111408c-0.1792257,0.0610342-0.3516695,0.1336927-0.5129726,0.2165241
		c-0.0450487,0.0227671-0.0881597,0.0469866-0.1322395,0.072175c-0.1404741,0.0784712-0.2790107,0.1685686-0.4117345,0.266901
		l-0.0343919,0.024704c-0.0266417,0.0193758-0.0532833,0.0382671-0.0789561,0.0590954
		c-0.013563,0.0101728-0.0276104,0.0203447-0.0416579,0.0300331c-0.0198601,0.0140467-0.0397202,0.0280943-0.0581272,0.0435953
		l-0.0363295,0.0489235l0.0004843,0.0004845C0.459205,12.4818506,0,13.4738884,0,14.5046778v1.4691648l0.8651267-0.0048437
		v-1.4667435c0-0.8951588,0.4562986-1.7481756,1.2197027-2.2819777c0.0561898-0.0382671,0.1138325-0.0750809,0.173413-0.1104412
		c0.0896127-0.0542526,0.1874602-0.1055984,0.2906361-0.1525841l0.0164692-0.0077505
		c0.0523145-0.0242195,0.104629-0.048439,0.1579123-0.0692682c0.1235204-0.0469866,0.2572129-0.0867062,0.397687-0.1186762
		c0.0164695-0.0038757,0.0324545-0.0087194,0.0484395-0.0130787c0.020829-0.0062971,0.0416577-0.0121098,0.0634556-0.0159855
		c0.1942418-0.0368137,0.3850927-0.0557051,0.5681934-0.0557051h0.7261057c0.1831007,0,0.3739519,0.0188913,0.5681934,0.0557051
		c0.0222821,0.0038757,0.0431113,0.0101728,0.06394,0.0159855c0.015985,0.0043592,0.0314856,0.009203,0.047955,0.0130787
		c0.1399899,0.03197,0.2736821,0.0716896,0.3972025,0.1181917c0.0518303,0.0203447,0.1022072,0.0440798,0.1525841,0.0673304
		l0.0222821,0.0101728c0.1026912,0.0469856,0.2005386,0.0983315,0.2911205,0.1525841
		c0.0590959,0.0353603,0.1167388,0.0721741,0.1724439,0.1104412c0.7638884,0.533802,1.2201872,1.3868189,1.2201872,2.2819777
		v1.4667435l0.8646421,0.0048437v-1.4691648C8.327692,13.4748573,7.8694558,12.484272,7.0682693,11.7760887z M5.8127213,8.644001
		c0,0.8651266-0.704308,1.5694351-1.5694346,1.5694351H4.1091094c-0.8651264,0-1.5689502-0.7043085-1.5689502-1.5694351
		S3.243983,7.0745664,4.1091094,7.0745664h0.1341772C5.1084132,7.0745664,5.8127213,7.7788744,5.8127213,8.644001z"/>
	<path class="st0" d="M14.7400923,11.7760887l0.0130787-0.008234l-0.0518293-0.0435953
		c-0.0184078-0.015501-0.0382671-0.0295486-0.0581274-0.0435953c-0.0140476-0.0096884-0.0280952-0.0198603-0.0411739-0.0300331
		c-0.0242195-0.0193758-0.0498924-0.0377827-0.0755653-0.0561895l-0.0372982-0.0271263
		c-0.1322393-0.0983315-0.2712603-0.1884289-0.4127035-0.2673845c-0.0440798-0.0251884-0.0871906-0.049408-0.1322393-0.072175
		c-0.1613026-0.0828314-0.3337469-0.1554899-0.5129719-0.2165241c-0.0092039-0.0033903-0.0184078-0.0067806-0.0280952-0.0106564
		c-0.0130787-0.0053282-0.0266418-0.0106564-0.0406895-0.0150156c-0.1632404-0.0513458-0.3158245-0.0905819-0.461627-0.1181927
		c0.8699713-0.3870306,1.442524-1.2579699,1.442524-2.2209435c0-1.3412857-1.0898848-2.4326243-2.4302015-2.4326243H11.77948
		c-1.3412857,0-2.4326239,1.0913386-2.4326239,2.4326243c0,0.9595833,0.5710993,1.8290691,1.4391327,2.2180376
		c-0.1506462,0.0280943-0.3075895,0.0678148-0.4761591,0.1210985c-0.0135622,0.0043592-0.0266409,0.0096874-0.0397196,0.0145311
		c-0.0096884,0.0038757-0.0193758,0.0077505-0.0295486,0.0111408c-0.179225,0.0610342-0.3516693,0.1336927-0.5124874,0.2165241
		c-0.0450487,0.0227671-0.088644,0.0469866-0.1327238,0.072175c-0.1419277,0.0794401-0.2804642,0.1695375-0.412219,0.2673845
		l-0.0392361,0.0280952c-0.0251884,0.0179224-0.0498924,0.0358448-0.0741119,0.0552206
		c-0.0130787,0.0106573-0.0271263,0.0203447-0.0416584,0.0305166c-0.0193758,0.0135632-0.0392351,0.0276108-0.0576429,0.0431118
		l-0.0363293,0.0489235l0.0004845,0.0004845c-0.8031244,0.7081833-1.2623291,1.7002211-1.2623291,2.7310104v1.4691648
		l0.8646421-0.0048437v-1.4667435c0-0.8951588,0.4562988-1.7481756,1.2197027-2.2819777
		c0.0561895-0.0382671,0.1138325-0.0750809,0.1734133-0.1104412c0.088644-0.0532837,0.186491-0.1046295,0.2911196-0.1525841
		l0.0217981-0.0101728c0.0503769-0.0232506,0.1007538-0.0469856,0.1520996-0.0668459
		c0.1240044-0.0469866,0.2576971-0.0867062,0.3981714-0.1186762c0.0159845-0.0038757,0.0314856-0.0087194,0.0474701-0.0130787
		c0.0208292-0.0058126,0.0416584-0.0121098,0.06394-0.0159855c0.1942425-0.0368137,0.3855772-0.0557051,0.5686779-0.0557051
		h0.7256222c0.1826162,0,0.373951,0.0188913,0.5686779,0.0557051c0.0217972,0.0038757,0.0426264,0.0101728,0.0634546,0.0159855
		c0.0159855,0.0043592,0.03197,0.009203,0.04844,0.0130787c0.1399899,0.03197,0.2736826,0.0716896,0.396718,0.1181917
		c0.0537682,0.0213137,0.106082,0.0455332,0.1583967,0.0697527l0.016469,0.0077505
		c0.1026917,0.0469856,0.2005396,0.0983315,0.2911205,0.1525841c0.0586119,0.0353603,0.1167393,0.0721741,0.1724443,0.1104412
		c0.7638884,0.533802,1.2201872,1.3868189,1.2201872,2.2819777v1.4667435L16,15.9738426v-1.4691648
		C16,13.4748573,15.5417643,12.484272,14.7400923,11.7760887z M13.4845448,8.644001
		c0,0.8651266-0.7038298,1.5694351-1.5689507,1.5694351h-0.1341763c-0.8651276,0-1.5694351-0.7043085-1.5694351-1.5694351
		s0.7043076-1.5694346,1.5694351-1.5694346h0.1341763C12.780715,7.0745664,13.4845448,7.7788744,13.4845448,8.644001z"/>
	<path class="st0" d="M10.8156576,7.343102c0.2255459-0.1811633,0.4960794-0.3044415,0.7953749-0.3491874
		c-0.2141628-0.5278072-0.5412493-1.014441-0.9887686-1.4088583l0.0121098-0.008719l-0.0474701-0.0402045
		c-0.0184069-0.0155005-0.0382671-0.0295482-0.0581274-0.0431113c-0.0140476-0.0096874-0.0280952-0.0198598-0.0411739-0.0300322
		c-0.0251884-0.0203447-0.0513458-0.0392361-0.0779867-0.0586114L10.3747387,5.379189
		c-0.1322393-0.0978475-0.2712603-0.1879444-0.4127026-0.2678695L9.9392691,5.0987253
		C9.9029398,5.0783811,9.867095,5.0585208,9.8297958,5.0396295C9.6646185,4.9553452,9.4921741,4.8826861,9.316824,4.8235898
		C9.30762,4.820199,9.2984171,4.8168082,9.2887287,4.8129334C9.27565,4.8076048,9.2620869,4.8022766,9.2480392,4.7979169
		C9.0847988,4.7465715,8.9322147,4.7073355,8.7864132,4.6797252c0.8699703-0.3875146,1.442523-1.2584543,1.442523-2.2214284
		c0-1.3412855-1.0898848-2.4321396-2.4302015-2.4321396H7.6650419c-1.3412852,0-2.4326239,1.090854-2.4326239,2.4321396
		c0,0.9595833,0.5710998,1.8295541,1.4391327,2.2185221c-0.1506462,0.0280948-0.3075895,0.0678148-0.4761586,0.121098
		C6.181829,4.8022766,6.1687508,4.8076048,6.1556721,4.812449c-0.0096879,0.0038753-0.0193758,0.00775-0.0295482,0.0111408
		C5.9517422,4.8822017,5.7792983,4.9548607,5.6136355,5.0396295C5.573431,5.0599742,5.5341949,5.0817719,5.4949594,5.104054
		l-0.0140476,0.00775C5.3409224,5.1907601,5.2019014,5.2803731,5.0686932,5.379189L5.0318789,5.4058309
		C5.005722,5.4247222,4.9800491,5.4431291,4.9558291,5.4629893C4.9422665,5.4731617,4.9287033,5.4828496,4.9151402,5.492053
		c-0.0203443,0.0140471-0.040689,0.0285792-0.0590959,0.0440798l-0.0382671,0.040689L4.8240743,5.58215
		c-0.4521208,0.3980503-0.7812057,0.8903151-0.99561,1.423996c0.1123791-0.0237961,0.2285125-0.0372381,0.347976-0.0372381
		c0.1962399,0,0.3817019,0.0400839,0.5566893,0.1020861c0.2098637-0.4048924,0.5170898-0.7645545,0.9090853-1.0383577
		C5.6984043,5.9934001,5.7565317,5.9570708,5.8156276,5.92171c0.0862222-0.0523148,0.1816478-0.1022072,0.2906361-0.1525841
		l0.0387516-0.0179224c0.0450487-0.0203447,0.089613-0.0411735,0.1361146-0.0586119
		C6.4022284,5.64609,6.5320458,5.606854,6.6783323,5.573431c0.0179229-0.0043597,0.0353608-0.0092034,0.0527992-0.0140476
		c0.0193753-0.0058126,0.0392356-0.0111408,0.0590959-0.0150161c0.1942415-0.0368137,0.3855772-0.0557051,0.5686779-0.0557051
		H8.084527c0.1826162,0,0.373951,0.0188913,0.5681934,0.0552206C8.6725807,5.5482426,8.69244,5.5535707,8.7118158,5.5593834
		C8.7297392,5.5642276,8.7471771,5.5690713,8.7650995,5.573431c0.146287,0.0339074,0.276104,0.072659,0.396718,0.1191607
		c0.047471,0.0179229,0.0934877,0.0392361,0.1395054,0.0600648l0.0353603,0.0164695
		C9.4442186,5.8190184,9.5396442,5.8689108,9.6278038,5.92171c0.0586119,0.0353608,0.1162548,0.0716901,0.1724443,0.1109262
		C10.2766495,6.3652325,10.6145744,6.8290396,10.8156576,7.343102z M7.8011565,4.025794H7.6669793
		c-0.8651266,0-1.5694346-0.7043083-1.5694346-1.5694349s0.704308-1.5694348,1.5694346-1.5694348h0.1341772
		c0.8651271,0,1.5689502,0.704308,1.5689502,1.5694348S8.6662836,4.025794,7.8011565,4.025794z"/>
</g>
</svg>
