<?xml version="1.0" encoding="UTF-8" standalone="no"?>
<!-- Generator: Adobe Illustrator 22.1.0, SVG Export Plug-In . SVG Version: 6.00 Build 0)  -->

<svg
   version="1.1"
   id="Ebene_1"
   x="0px"
   y="0px"
   viewBox="0 0 137 137"
   style="enable-background:new 0 0 137 137;"
   xml:space="preserve"
   sodipodi:docname="NeXus-FAIRmat-nyaml1.svg"
   inkscape:version="1.1.2 (0a00cf5339, 2022-02-04)"
   inkscape:export-filename="/home/rubel/NOMAD-FAIRmat/GH/nyaml/logo/NeXus-FAIRmat-nyaml4.png"
   inkscape:export-xdpi="256"
   inkscape:export-ydpi="256"
   xmlns:inkscape="http://www.inkscape.org/namespaces/inkscape"
   xmlns:sodipodi="http://sodipodi.sourceforge.net/DTD/sodipodi-0.dtd"
   xmlns="http://www.w3.org/2000/svg"
   xmlns:svg="http://www.w3.org/2000/svg"><defs
   id="defs22606"><rect
     x="1313.4238"
     y="-186.13644"
     width="80.724085"
     height="104.07071"
     id="rect152306" /><linearGradient
     id="linearGradient66376"
     inkscape:swatch="solid"><stop
       style="stop-color:#00c6e0;stop-opacity:1;"
       offset="0"
       id="stop66374" /></linearGradient></defs><sodipodi:namedview
   id="namedview22604"
   pagecolor="#ffffff"
   bordercolor="#666666"
   borderopacity="1.0"
   inkscape:pageshadow="2"
   inkscape:pageopacity="0.0"
   inkscape:pagecheckerboard="true"
   showgrid="true"
   inkscape:zoom="0.38170912"
   inkscape:cx="352.36255"
   inkscape:cy="326.16459"
   inkscape:window-width="1850"
   inkscape:window-height="1009"
   inkscape:window-x="0"
   inkscape:window-y="0"
   inkscape:window-maximized="1"
   inkscape:current-layer="g208568"
   showguides="true"
   inkscape:guide-bbox="true"
   showborder="false"
   inkscape:snap-grids="true"><inkscape:grid
     type="xygrid"
     id="grid161629"
     dotted="true"
     empspacing="5"
     originx="137"
     originy="0"
     units="pt" /></sodipodi:namedview>
<style
   type="text/css"
   id="style22575">
	.st0{fill:#669933;}
</style>













<g
   id="g93944"
   transform="matrix(7.6624496,0,0,7.6624496,-118.26899,-239.30717)"><g
     id="g175099"><g
       id="g208568"
       transform="translate(18.331548,3.8893935)"><g
         id="g10572"><path
           id="polygon22577"
           class="st0"
           d="m 16.435319,27.341764 -2.425238,1.380683 1.95361,3.367839 -1.751673,1.010353 5.927923,3.402044 v -6.836978 l -1.75167,1.010352 z m 9.631888,0 -1.920063,3.334293 -1.751014,-1.010352 v 6.836978 l 5.89372,-3.402044 -1.751013,-1.010353 1.952952,-3.367839 z m -18.6244135,5.186604 -2.3910341,1.380682 1.9194049,3.36784 -1.717466,1.010352 5.8937187,3.401386 V 34.85231 l -1.7510124,1.01035 z m 27.6162825,0 -1.952952,3.334292 -1.751671,-1.01035 v 6.836318 l 5.927265,-3.401386 -1.751014,-1.010352 1.953608,-3.36784 z m -21.654813,2.694274 v 6.836974 l 1.751014,-1.01035 1.111651,1.952952 -2.560086,1.481979 v 2.963962 h -2.256189 v -2.020703 l -5.8937173,3.401388 5.8937173,3.401388 v -2.020707 h 2.256189 v 2.96396 l 2.560086,1.481322 -1.111651,1.953616 -1.751014,-1.010352 v 6.836976 l 5.927267,-3.402048 -1.751673,-1.010353 1.11165,-1.952948 2.559428,1.481981 2.559425,-1.481981 1.145197,1.952948 -1.751012,1.010353 5.927264,3.402048 v -6.836976 l -1.751013,1.010352 -1.145196,-1.953616 2.559426,-1.481322 v -2.96396 h 2.256189 v 2.020707 l 5.927923,-3.401388 -5.927923,-3.401388 v 2.020703 h -2.256189 v -2.963962 l -2.559426,-1.481979 1.110993,-1.952952 1.751669,1.01035 v -6.836974 l -5.893717,3.401384 1.751012,1.010353 -1.145197,1.953609 -2.559425,-1.481981 -2.559428,1.481981 -1.11165,-1.953609 1.751673,-1.010353 z m -9.2957614,5.018209 v 2.020706 H 0.235487 v 2.794911 h 3.8730146 v 1.987156 l 5.8937194,-3.401386 z m 34.2848664,0 -5.893719,3.401387 5.893719,3.401386 v -1.987156 h 3.873015 v -2.794911 h -3.873015 z m -17.142433,4.546585 3.502685,2.020702 v 4.04141 l -3.502685,2.020697 -3.502684,-2.020697 v -4.04141 z M 4.1085016,50.613405 v 2.020703 H 0.235487 v 2.795567 h 3.8730146 v 1.987156 l 5.8937194,-3.401384 z m 34.2848664,0 -5.893719,3.402042 5.893719,3.401384 v -1.987156 h 3.873015 v -2.795567 h -3.873015 z m -27.245951,5.354994 -5.9272653,3.401388 1.7510126,1.010352 -1.9194049,3.36784 2.4245812,1.414886 1.920064,-3.36784 1.7510124,1.010353 z m 20.207036,0 v 6.836979 l 1.751671,-1.010353 1.952952,3.36784 2.425236,-1.414886 -1.953608,-3.36784 1.751014,-1.010352 z m -11.214512,5.186603 -5.927923,3.401386 1.751673,1.010354 -1.920066,3.367839 2.391694,1.414884 1.952952,-3.367838 1.75167,1.010352 z m 2.256189,0 v 6.836977 l 1.717468,-1.010352 1.953609,3.367838 2.424582,-1.414884 -1.952952,-3.367839 1.751013,-1.010354 z"
           style="stroke-width:0.336784" /><text
           xml:space="preserve"
           style="font-style:normal;font-weight:normal;font-size:24.5083px;line-height:1.25;font-family:sans-serif;fill:#000000;fill-opacity:1;stroke:none;stroke-width:0.376487"
           x="-5.1464558"
           y="96.47747"
           id="text26019"><tspan
             sodipodi:role="line"
             id="tspan26017"
             x="-5.1464558"
             y="96.47747"
             style="font-weight:bold;font-size:24.5083px;fill:#669933;fill-opacity:1;stroke-width:0.376487">FAIRmat-NeXus</tspan><tspan
             sodipodi:role="line"
             x="-5.1464558"
             y="127.11285"
             id="tspan26021"
             style="font-weight:bold;font-size:24.5083px;fill:#669933;fill-opacity:1;stroke-width:0.376487" /></text><text
           xml:space="preserve"
           style="font-style:normal;font-variant:normal;font-weight:bold;font-stretch:normal;font-size:43.0897px;line-height:1.23;font-family:'Lobster Two';-inkscape-font-specification:'Lobster Two Bold';fill:#2799c7;fill-opacity:1;stroke:none;stroke-width:0.661516"
           x="50.334457"
           y="59.659039"
           id="text40592"><tspan
             id="tspan40590"
             x="50.334457"
             y="59.659039"
             style="font-style:normal;font-variant:normal;font-weight:bold;font-stretch:normal;font-size:43.0897px;font-family:'Lobster Two';-inkscape-font-specification:'Lobster Two Bold';fill:#2a88df;fill-opacity:1;stroke-width:0.661516"
             sodipodi:role="line"
             rotate="0 0 0 0 0 0">NYAML</tspan></text></g></g><text
       xml:space="preserve"
       style="font-style:normal;font-weight:normal;font-size:40px;line-height:1.25;font-family:sans-serif;fill:#000000;fill-opacity:1;stroke:none"
       x="129.99174"
       y="20.998829"
       id="text60488"><tspan
         sodipodi:role="line"
         id="tspan60486"
         x="129.99174"
         y="20.998829" /></text><text
       xml:space="preserve"
       transform="matrix(0.13050651,0,0,0.13050651,33.766423,35.120548)"
       id="text152304"
       style="font-style:normal;font-weight:normal;font-size:40px;line-height:1.25;font-family:sans-serif;white-space:pre;shape-inside:url(#rect152306);fill:#000000;fill-opacity:1;stroke:none" /></g></g></svg>
