<?xml version="1.0" encoding="UTF-8" standalone="no"?>
<!DOCTYPE svg PUBLIC "-//W3C//DTD SVG 1.1//EN"
 "http://www.w3.org/Graphics/SVG/1.1/DTD/svg11.dtd">
<!-- Generated by graphviz version 12.2.1 (20241206.2353)
 -->
<!-- Title: hello world Pages: 1 -->
<svg width="407pt" height="123pt"
 viewBox="0.00 0.00 406.50 122.50" xmlns="http://www.w3.org/2000/svg" xmlns:xlink="http://www.w3.org/1999/xlink">
<g id="graph0" class="graph" transform="scale(1 1) rotate(0) translate(4 118.5)">
<title>hello world</title>
<polygon fill="white" stroke="none" points="-4,4 -4,-118.5 402.5,-118.5 402.5,4 -4,4"/>
<text text-anchor="middle" x="199.25" y="-97.2" font-family="Times,serif" font-size="14.00">hello world</text>
<!-- node_0 -->
<g id="node1" class="node">
<title>node_0</title>
<polygon fill="#ececff" stroke="#9370db" points="202,-90 138,-90 138,-54 202,-54 202,-90"/>
<text text-anchor="middle" x="170" y="-66.95" font-family="Times,serif" font-size="14.00">add[add]</text>
</g>
<!-- node_3 -->
<g id="node4" class="node">
<title>node_3</title>
<polygon fill="#ececff" stroke="#9370db" points="398.5,-63 344.5,-63 344.5,-27 398.5,-27 398.5,-63"/>
<text text-anchor="middle" x="371.5" y="-39.95" font-family="Times,serif" font-size="14.00">End</text>
</g>
<!-- node_0&#45;&gt;node_3 -->
<g id="edge1" class="edge">
<title>node_0&#45;&gt;node_3</title>
<path fill="none" stroke="black" d="M202.17,-67.78C237.53,-63 295.16,-55.2 332.96,-50.08"/>
<polygon fill="black" stroke="black" points="333.07,-53.6 342.51,-48.79 332.13,-46.66 333.07,-53.6"/>
<text text-anchor="middle" x="282.25" y="-65.7" font-family="Times,serif" font-size="14.00">.&#45;&gt;add_result</text>
</g>
<!-- node_1 -->
<g id="node2" class="node">
<title>node_1</title>
<polygon fill="#ececff" stroke="#9370db" points="220,-36 120,-36 120,0 220,0 220,-36"/>
<text text-anchor="middle" x="170" y="-12.95" font-family="Times,serif" font-size="14.00">square[Pow(2)]</text>
</g>
<!-- node_1&#45;&gt;node_3 -->
<g id="edge2" class="edge">
<title>node_1&#45;&gt;node_3</title>
<path fill="none" stroke="black" d="M220.39,-19.63C251.14,-21.29 291.39,-24.67 326.5,-31.5 328.68,-31.92 330.9,-32.41 333.13,-32.95"/>
<polygon fill="black" stroke="black" points="332.18,-36.32 342.74,-35.55 334,-29.56 332.18,-36.32"/>
<text text-anchor="middle" x="282.25" y="-34.7" font-family="Times,serif" font-size="14.00">.&#45;&gt;square_result</text>
</g>
<!-- node_2 -->
<g id="node3" class="node">
<title>node_2</title>
<polygon fill="#ececff" stroke="#9370db" points="54,-63 0,-63 0,-27 54,-27 54,-63"/>
<text text-anchor="middle" x="27" y="-39.95" font-family="Times,serif" font-size="14.00">Start</text>
</g>
<!-- node_2&#45;&gt;node_0 -->
<g id="edge3" class="edge">
<title>node_2&#45;&gt;node_0</title>
<path fill="none" stroke="black" d="M54.19,-50.02C74.45,-53.89 102.92,-59.35 126.44,-63.85"/>
<polygon fill="black" stroke="black" points="125.56,-67.25 136.04,-65.69 126.88,-60.37 125.56,-67.25"/>
<text text-anchor="middle" x="87" y="-61.7" font-family="Times,serif" font-size="14.00">.&#45;&gt;**</text>
</g>
<!-- node_2&#45;&gt;node_1 -->
<g id="edge4" class="edge">
<title>node_2&#45;&gt;node_1</title>
<path fill="none" stroke="black" d="M54.43,-37.65C60.19,-36.17 66.28,-34.7 72,-33.5 83.88,-31 96.66,-28.7 108.91,-26.67"/>
<polygon fill="black" stroke="black" points="109.17,-30.17 118.49,-25.12 108.06,-23.26 109.17,-30.17"/>
<text text-anchor="middle" x="87" y="-36.7" font-family="Times,serif" font-size="14.00">b&#45;&gt;a</text>
</g>
</g>
</svg>
