<?xml version="1.0" encoding="UTF-8" standalone="no"?>
<!DOCTYPE svg PUBLIC "-//W3C//DTD SVG 1.1//EN"
 "http://www.w3.org/Graphics/SVG/1.1/DTD/svg11.dtd">
<!-- Generated by graphviz version 12.2.1 (20241206.2353)
 -->
<!-- Title: hello world Pages: 1 -->
<svg width="610pt" height="129pt"
 viewBox="0.00 0.00 609.50 129.00" xmlns="http://www.w3.org/2000/svg" xmlns:xlink="http://www.w3.org/1999/xlink">
<g id="graph0" class="graph" transform="scale(1 1) rotate(0) translate(4 125)">
<title>hello world</title>
<polygon fill="white" stroke="none" points="-4,4 -4,-125 605.5,-125 605.5,4 -4,4"/>
<text text-anchor="middle" x="300.75" y="-103.7" font-family="Times,serif" font-size="14.00">hello world</text>
<!-- node_0 -->
<g id="node1" class="node">
<title>node_0</title>
<polygon fill="#ececff" stroke="#9370db" points="263.5,-96.5 127.5,-96.5 127.5,-55.5 263.5,-55.5 263.5,-96.5"/>
<text text-anchor="middle" x="195.5" y="-79.2" font-family="Times,serif" font-size="14.00">get_docs[</text>
<text text-anchor="middle" x="195.5" y="-62.7" font-family="Times,serif" font-size="14.00">ChromaClient.query ]</text>
</g>
<!-- node_2 -->
<g id="node3" class="node">
<title>node_2</title>
<polygon fill="#ececff" stroke="#9370db" points="510.5,-74 348.25,-74 348.25,0 510.5,0 510.5,-74"/>
<text text-anchor="middle" x="429.38" y="-56.7" font-family="Times,serif" font-size="14.00">chat[</text>
<text text-anchor="middle" x="429.38" y="-40.2" font-family="Times,serif" font-size="14.00">Chat(model=&#39;gpt&#45;4o&#45;mini&#39;,</text>
<text text-anchor="middle" x="429.38" y="-23.7" font-family="Times,serif" font-size="14.00">required_keys={&#39;question&#39;,</text>
<text text-anchor="middle" x="429.38" y="-7.2" font-family="Times,serif" font-size="14.00">&#39;docs&#39;}, seed=42) ]</text>
</g>
<!-- node_0&#45;&gt;node_2 -->
<g id="edge1" class="edge">
<title>node_0&#45;&gt;node_2</title>
<path fill="none" stroke="black" d="M263.88,-64.67C286.72,-60.83 312.64,-56.47 337.03,-52.36"/>
<polygon fill="black" stroke="black" points="337.34,-55.86 346.62,-50.75 336.17,-48.96 337.34,-55.86"/>
<text text-anchor="middle" x="305.88" y="-64.34" font-family="Times,serif" font-size="14.00">. &#45;&gt; docs</text>
</g>
<!-- node_1 -->
<g id="node2" class="node">
<title>node_1</title>
<polygon fill="#ececff" stroke="#9370db" points="54,-61 0,-61 0,-25 54,-25 54,-61"/>
<text text-anchor="middle" x="27" y="-37.95" font-family="Times,serif" font-size="14.00">Start</text>
</g>
<!-- node_1&#45;&gt;node_0 -->
<g id="edge2" class="edge">
<title>node_1&#45;&gt;node_0</title>
<path fill="none" stroke="black" d="M54.38,-48.23C71.17,-51.56 93.87,-56.05 116.1,-60.46"/>
<polygon fill="black" stroke="black" points="115.32,-63.88 125.81,-62.39 116.68,-57.01 115.32,-63.88"/>
<text text-anchor="middle" x="90.75" y="-61.71" font-family="Times,serif" font-size="14.00">. &#45;&gt; **</text>
</g>
<!-- node_1&#45;&gt;node_2 -->
<g id="edge3" class="edge">
<title>node_1&#45;&gt;node_2</title>
<path fill="none" stroke="black" d="M54.1,-38.81C74.12,-35.82 102.48,-32.07 127.5,-30.5 197.55,-26.12 276.94,-28.12 336.57,-31.02"/>
<polygon fill="black" stroke="black" points="336.17,-34.51 346.34,-31.52 336.52,-27.51 336.17,-34.51"/>
<text text-anchor="middle" x="195.5" y="-33.7" font-family="Times,serif" font-size="14.00">query &#45;&gt; question</text>
</g>
<!-- node_3 -->
<g id="node4" class="node">
<title>node_3</title>
<polygon fill="#ececff" stroke="#9370db" points="601.5,-55 547.5,-55 547.5,-19 601.5,-19 601.5,-55"/>
<text text-anchor="middle" x="574.5" y="-31.95" font-family="Times,serif" font-size="14.00">End</text>
</g>
<!-- node_2&#45;&gt;node_3 -->
<g id="edge4" class="edge">
<title>node_2&#45;&gt;node_3</title>
<path fill="none" stroke="black" d="M510.72,-37C519.44,-37 527.98,-37 535.82,-37"/>
<polygon fill="black" stroke="black" points="535.59,-40.5 545.59,-37 535.59,-33.5 535.59,-40.5"/>
</g>
</g>
</svg>
