<?xml version="1.0" standalone="no"?>
<!DOCTYPE svg PUBLIC "-//W3C//DTD SVG 20010904//EN"
 "http://www.w3.org/TR/2001/REC-SVG-20010904/DTD/svg10.dtd">
<svg version="1.0" xmlns="http://www.w3.org/2000/svg"
 width="512.000000pt" height="512.000000pt" viewBox="0 0 512.000000 512.000000"
 preserveAspectRatio="xMidYMid meet">
<metadata>
Created by potrace 1.14, written by Peter Selinger 2001-2017
</metadata>
<g transform="translate(0.000000,512.000000) scale(0.100000,-0.100000)"
fill="#000000" stroke="none">
<path d="M2308 5115 c-1 -1 -40 -6 -85 -9 -45 -4 -90 -8 -100 -10 -10 -2 -40
-7 -68 -10 -159 -22 -365 -87 -473 -151 -117 -69 -204 -166 -236 -263 -16 -46
-18 -93 -17 -374 1 -177 3 -323 5 -326 3 -2 283 -4 623 -5 l618 -2 0 -85 0
-85 -923 -2 c-828 -1 -931 -3 -1000 -18 -41 -10 -83 -21 -91 -25 -9 -4 -42
-21 -75 -36 -125 -62 -257 -201 -331 -349 -55 -111 -104 -264 -120 -370 -3
-23 -7 -52 -10 -65 -28 -145 -28 -571 1 -760 7 -49 33 -175 39 -191 2 -8 6
-25 9 -39 15 -89 106 -283 176 -375 48 -65 127 -143 151 -150 10 -4 19 -10 19
-14 0 -10 122 -67 183 -85 35 -10 114 -14 305 -15 l257 -2 0 333 c-1 183 3
360 7 393 32 244 165 448 347 536 92 45 171 66 267 73 31 3 58 7 61 9 2 3 20
1 39 -3 19 -5 37 -4 40 1 3 5 10 7 15 3 6 -3 49 -5 97 -4 48 1 94 1 102 1 8 0
35 0 60 0 25 0 52 0 60 0 8 0 53 0 100 0 47 0 92 0 100 0 8 0 47 0 85 0 99 0
117 0 194 -2 38 0 74 2 80 5 5 4 12 2 16 -4 4 -6 10 -8 15 -5 7 4 82 6 185 3
53 -1 195 11 240 21 108 22 216 67 280 115 60 44 135 119 135 133 0 7 4 13 8
13 13 0 67 116 88 186 16 53 18 123 21 744 3 610 1 691 -13 740 -58 191 -226
341 -481 426 -43 14 -84 27 -93 29 -8 2 -33 8 -55 13 -22 6 -53 13 -70 16 -16
3 -39 7 -50 9 -25 6 -103 16 -170 23 -55 6 -561 14 -567 9z m-343 -415 c131
-63 163 -250 61 -350 -45 -45 -54 -50 -113 -64 -51 -12 -64 -11 -110 4 -74 24
-113 58 -141 120 -34 77 -18 179 39 245 23 25 99 72 99 60 0 -3 7 -2 16 3 26
15 100 6 149 -18z"/>
<path d="M3979 3821 c-1 -3 -2 -159 -3 -346 -1 -187 -6 -360 -10 -385 -12 -73
-47 -192 -63 -217 -9 -13 -13 -23 -9 -23 3 0 -11 -26 -32 -59 -40 -62 -117
-151 -131 -151 -5 0 -11 -4 -13 -8 -1 -5 -24 -22 -50 -40 -61 -42 -205 -89
-298 -98 -41 -4 -385 -7 -765 -8 -621 -2 -697 -4 -755 -20 -232 -62 -367 -161
-450 -331 -67 -136 -70 -165 -70 -895 0 -693 0 -697 58 -804 57 -105 176 -209
316 -275 67 -32 197 -77 247 -86 18 -3 36 -8 39 -10 4 -3 25 -7 46 -11 22 -3
50 -7 64 -10 112 -21 309 -36 470 -37 112 0 345 10 395 18 17 2 66 9 110 15
353 50 602 182 703 374 l27 51 3 347 3 346 -615 0 c-338 0 -618 2 -623 5 -7 4
-10 141 -4 167 0 3 409 5 909 6 499 0 932 3 962 7 93 11 229 68 310 129 57 43
133 126 175 189 42 64 112 202 120 238 2 9 15 54 28 101 44 153 49 228 45 615
-3 198 -7 374 -11 392 -41 211 -95 364 -169 484 -54 89 -130 174 -191 215 -23
16 -44 31 -47 34 -13 13 -71 40 -130 60 -60 21 -85 23 -327 25 -145 2 -263 0
-264 -4z m-615 -2992 c91 -42 141 -131 131 -228 -12 -116 -114 -203 -229 -196
-106 6 -185 71 -207 172 -40 178 143 329 305 252z"/>
</g>
</svg>
