<?xml version="1.0" encoding="UTF-8"?>
<svg id="Layer_1" xmlns="http://www.w3.org/2000/svg" viewBox="0 0 222 36">
	<defs>
		<style>.cls-1{fill:#fbcb09;}.cls-1,.cls-2{stroke-width:0px;}.cls-2{fill:#1d1f1e;}</style>
	</defs>
	<g id="_그룹_1881">
		<path id="_패스_6590" class="cls-2"
			d="M55.12,21.08v-3.41h-15.96V6.87h17.91v-3.49h-21.83v32.54h22.46v-3.49h-18.55v-11.34h15.96Z" />
		<path id="_패스_6591" class="cls-2"
			d="M92.49,35.91h3.73l-.04-32.54h-3.22l-13.28,23.64-13.46-23.64h-3.22v32.54h3.73V11.02l12,20.87h1.72l12-21.02.05,25.04Z" />
		<path id="_패스_6592" class="cls-2"
			d="M15.29,0L0,35.99l22.7-8.18,3.17,7.46h4.51L15.29,0ZM21.28,24.32l-14.13,5.1.91-2.25,7.22-16.95,5.99,14.11Z" />
		<g id="_그룹_1880">
			<path id="_패스_6587" class="cls-1"
				d="M120.44,14.5l4.38,11.03h-8.79l4.41-11.03ZM118.33,10.93l-10.37,25.06h3.91l2.91-7.34h11.26l2.91,7.34h4.09l-10.29-25.06h-4.41Z" />
			<path id="_패스_6588" class="cls-1"
				d="M135.48,35.99V10.93h8.82c1.8-.02,3.58.3,5.26.93,1.55.6,2.97,1.49,4.18,2.63,2.46,2.33,3.84,5.58,3.8,8.97.04,3.38-1.33,6.63-3.78,8.97-1.2,1.15-2.63,2.04-4.18,2.63-1.69.64-3.47.95-5.28.93h-8.82ZM139.25,32.63h5.13c1.25.01,2.49-.22,3.66-.68,2.23-.89,4.01-2.64,4.93-4.85.47-1.14.71-2.37.7-3.6.01-1.25-.23-2.49-.72-3.65-.92-2.21-2.69-3.96-4.92-4.85-1.17-.48-2.43-.71-3.69-.7h-5.09v18.34Z" />
			<rect id="_사각형_40" class="cls-1" x="192.08" y="10.93" width="3.77" height="25.06" />
			<path id="_패스_6589" class="cls-1"
				d="M200.8,35.99V10.92h3.66l13.99,18.62V10.92h3.55v25.06h-3.34l-14.31-19.15v19.16h-3.55Z" />
			<path id="_패스_6593" class="cls-1"
				d="M184.23,11.37l-9.79,20.51-9.97-20.5h-2.97v24.61h3.24v-17.12l8.28,17.12h2.68l8.22-17.39v17.39h3.25V11.37h-2.94Z" />
		</g>
	</g>
</svg>