<?xml version="1.0" encoding="UTF-8" standalone="no"?>
<!-- Created with Inkscape (http://www.inkscape.org/) -->

<svg
   width="90.858604mm"
   height="97.2108mm"
   viewBox="0 0 90.858605 97.210801"
   version="1.1"
   id="svg5"
   sodipodi:docname="custom.svg"
   inkscape:version="1.1.2 (b8e25be8, 2022-02-05)"
   xmlns:inkscape="http://www.inkscape.org/namespaces/inkscape"
   xmlns:sodipodi="http://sodipodi.sourceforge.net/DTD/sodipodi-0.dtd"
   xmlns="http://www.w3.org/2000/svg"
   xmlns:svg="http://www.w3.org/2000/svg">
  <sodipodi:namedview
     id="namedview836"
     pagecolor="#ffffff"
     bordercolor="#666666"
     borderopacity="1.0"
     inkscape:pageshadow="2"
     inkscape:pageopacity="0.0"
     inkscape:pagecheckerboard="0"
     inkscape:document-units="mm"
     showgrid="false"
     inkscape:zoom="2.1504039"
     inkscape:cx="168.10795"
     inkscape:cy="179.26865"
     inkscape:window-width="1920"
     inkscape:window-height="1027"
     inkscape:window-x="1728"
     inkscape:window-y="25"
     inkscape:window-maximized="0"
     inkscape:current-layer="svg5"
     fit-margin-top="10"
     fit-margin-left="10"
     fit-margin-right="10"
     fit-margin-bottom="10" />
  <defs
     id="defs2" />
  <path
     style="stroke-width:2.928;fill-rule:evenodd;fill-opacity:1;stroke-miterlimit:4;stroke-dasharray:none"
     d="m 38.163446,46.834192 h 15.858796 c 4.414809,0 7.939644,-3.633148 7.939644,-8.068451 v -15.11812 c 0,-4.303562 -3.630228,-7.53563 -7.939644,-8.252893 -2.728525,-0.453772 -5.556589,-0.661682 -8.270464,-0.646966 -2.713885,0.01438 -5.307738,0.242986 -7.588332,0.646966 -6.718839,1.185675 -7.939645,3.671203 -7.939645,8.252893 v 6.051347 h 15.876357 v 2.017115 H 24.26321 c -4.61389,0 -8.653974,2.77243 -9.918696,8.050891 -1.457949,6.048414 -1.522359,9.822089 0,16.136913 1.127119,4.701724 3.823444,8.050903 8.437334,8.050903 h 5.45997 v -7.254592 c 0,-5.240398 4.534841,-9.863073 9.918696,-9.863073 z M 37.16218,25.664737 c -1.645311,0 -2.980296,-1.349624 -2.980296,-3.015428 0,-1.674578 1.332064,-3.035919 2.980296,-3.035919 1.639459,0 2.980296,1.361341 2.980296,3.035919 0,1.668736 -1.337916,3.015428 -2.980296,3.015428 z m 40.673108,14.099316 c -1.138814,-4.593409 -3.316947,-8.050902 -7.939622,-8.050902 h -5.95766 v 7.049658 c 0,5.465824 -4.634382,10.068007 -9.918696,10.068007 H 38.160514 c -4.344558,0 -7.939644,3.71805 -7.939644,8.068462 v 15.118109 c 0,4.303573 3.741475,6.833018 7.939644,8.068462 5.026689,1.478431 9.845513,1.744841 15.858796,0 3.996168,-1.156408 7.939644,-3.486771 7.939644,-8.068462 V 65.96604 H 46.100158 v -2.017115 h 23.798441 c 4.613889,0 6.332395,-3.217428 7.939643,-8.050891 1.657019,-4.973987 1.586756,-9.754747 0,-16.136914 z M 55.020532,70.003204 c 1.6453,0 2.980285,1.349623 2.980285,3.015427 0,1.674578 -1.334985,3.035909 -2.980285,3.035909 -1.639459,0 -2.980296,-1.361331 -2.980296,-3.035909 0,-1.668737 1.337905,-3.015427 2.980296,-3.015427 z"
     id="path917" />
</svg>
