<svg viewBox="0 0 154.6284 34.9766" xmlns="http://www.w3.org/2000/svg">
	<path fill="#F95503" d="M43.3325,34.3203h-9.3398L54.1021,8.9844H35.2524l1.082-5.8296h30.6367L43.3325,34.3203z"/>
	<path fill="#003E9A" d="M17.1997,7.1548c5.8359,0,10.583,4.7476,10.583,10.583s-4.7471,10.5825-10.583,10.5825
	s-10.583-4.7471-10.583-10.5825S11.3638,7.1548,17.1997,7.1548 M17.1997,1.1548c-9.1582,0-16.583,7.4243-16.583,16.583
	s7.4248,16.5825,16.583,16.5825s16.583-7.4238,16.583-16.5825S26.3579,1.1548,17.1997,1.1548L17.1997,1.1548z"/>
	<g>
		<path fill="#003E9A" d="M71.5698,29.4814l2.3096,1.6709c-1.6875,2.1123-3.8809,3.168-6.584,3.168
		c-2.3086,0-4.2656-0.7734-5.8711-2.3213c-1.6045-1.5479-2.4072-3.4502-2.4072-5.7109c0-2.2598,0.8027-4.1631,2.4072-5.7109
		c1.6055-1.5479,3.5625-2.3213,5.8711-2.3213c2.7031,0,4.8965,1.0557,6.584,3.1689L71.52,23.1934
		c-1.0313-1.4902-2.4395-2.2354-4.2246-2.2354c-1.4082,0-2.6406,0.5195-3.6973,1.5596c-1.0557,1.04-1.584,2.2969-1.584,3.7705
		s0.5283,2.7305,1.584,3.7705c1.0566,1.04,2.2891,1.5605,3.6973,1.5605C69.0962,31.6191,70.522,30.9063,71.5698,29.4814z"/>
		<path fill="#003E9A" d="M77.1216,32.4414c-1.1953-1.2529-1.793-2.7148-1.793-4.3848s0.5977-3.1318,1.793-4.3848
		c1.1943-1.2529,2.7842-1.8789,4.7656-1.8789c1.9805,0,3.5693,0.626,4.7656,1.8789c1.1943,1.2529,1.793,2.7148,1.793,4.3848
		s-0.5986,3.1318-1.793,4.3848c-1.1963,1.2529-2.7852,1.8789-4.7656,1.8789C79.9058,34.3203,78.3159,33.6943,77.1216,32.4414z
		 M79.1235,25.3184c-0.7295,0.7451-1.0938,1.6582-1.0938,2.7383c0,1.0811,0.3643,1.9941,1.0938,2.7393
		c0.7285,0.7451,1.6484,1.1172,2.7637,1.1172c1.1133,0,2.0332-0.3721,2.7637-1.1172c0.7285-0.7451,1.0928-1.6582,1.0928-2.7393
		c0-1.0801-0.3643-1.9932-1.0928-2.7383c-0.7305-0.7451-1.6504-1.1182-2.7637-1.1182
		C80.772,24.2002,79.8521,24.5732,79.1235,25.3184z"/>
		<path fill="#003E9A" d="M90.8032,34.002V22.1123h2.5547v1.499h0.0498c0.7852-1.2129,1.998-1.8184,3.6348-1.8184
		c1.2773,0,2.3662,0.4785,3.2666,1.4375c0.9014,0.958,1.3516,2.1572,1.3516,3.5977v7.1738H99.105v-6.6084
		c0-2.0303-0.9414-3.0459-2.8232-3.0459c-0.8525,0-1.5527,0.2666-2.1006,0.7988c-0.5498,0.5313-0.8232,1.2646-0.8232,2.1982v6.6572
		H90.8032z"/>
		<path fill="#003E9A" d="M103.7729,32.2324l1.7441-1.7686c0.458,0.5078,1.0322,0.9258,1.7197,1.2529
		c0.6875,0.3281,1.3594,0.4912,2.0137,0.4912c0.6885,0,1.2529-0.1592,1.6953-0.4785c0.4414-0.3193,0.6641-0.6592,0.6641-1.0195
		c0-0.7207-0.5156-1.1787-1.5479-1.376l-1.4502-0.2695c-1.6045-0.2949-2.7178-0.709-3.3408-1.2402
		c-0.6221-0.5332-0.9326-1.25-0.9326-2.1504c0-1.0645,0.4209-1.9766,1.2637-2.7383c0.8447-0.7617,1.9785-1.1426,3.4023-1.1426
		c1.6055,0,3.1777,0.5488,4.7168,1.6455l-1.4492,1.793c-1.0469-0.8838-2.1123-1.3262-3.1924-1.3262
		c-0.5908,0-1.1025,0.1348-1.5361,0.4053s-0.6504,0.6348-0.6504,1.0938c0,0.6543,0.5156,1.0723,1.5469,1.252l2.5791,0.4922
		c2.0967,0.3926,3.1445,1.4492,3.1445,3.168c0,1.0156-0.4248,1.9375-1.2764,2.7637c-0.8535,0.8271-2.1045,1.2402-3.7598,1.2402
		C107.1958,34.3203,105.4097,33.625,103.7729,32.2324z"/>
		<path fill="#003E9A" d="M125.5122,30.2188l2.1611,1.2031c-1.5225,1.9004-3.3652,2.8652-5.5264,2.8984
		c-1.9805,0-3.5703-0.626-4.7656-1.8789s-1.793-2.7148-1.793-4.3848s0.5977-3.1318,1.793-4.3848s2.7852-1.8789,4.7656-1.8789
		c0.6543,0,1.3262,0.1348,2.0146,0.4053s1.3506,0.6631,1.9893,1.1787c0.6396,0.5156,1.1592,1.2207,1.5596,2.1123
		c0.4014,0.8936,0.6016,1.8877,0.6016,2.9854v0.4668h-9.874c0.0654,0.8838,0.458,1.625,1.1787,2.2227
		c0.7197,0.5977,1.5391,0.8965,2.457,0.8965C123.4497,32.0605,124.5942,31.4473,125.5122,30.2188z M118.438,26.8281h6.8779
		c-0.2617-0.8838-0.7041-1.5674-1.3271-2.0508c-0.623-0.4824-1.3506-0.7246-2.1855-0.7246c-0.8203,0-1.5322,0.2461-2.1367,0.7373
		C119.0601,25.2813,118.6509,25.9609,118.438,26.8281z"/>
		<path fill="#003E9A" d="M131.186,20.6875c-0.2793-0.2783-0.418-0.6133-0.418-1.0068s0.1387-0.7295,0.418-1.0078
		c0.2783-0.2783,0.6133-0.417,1.0078-0.417c0.3936,0,0.7285,0.1387,1.0059,0.417c0.2803,0.2783,0.4189,0.6143,0.4189,1.0078
		s-0.1387,0.7285-0.4189,1.0068c-0.2773,0.2793-0.6123,0.418-1.0059,0.418C131.7993,21.1055,131.4644,20.9668,131.186,20.6875z
		 M130.9165,34.002V22.1123h2.5537V34.002H130.9165z"/>
		<path fill="#003E9A" d="M136.813,18.5752h2.5527v10.6357c0,0.6719,0.0801,1.168,0.2344,1.4863
		c0.1543,0.3193,0.4307,0.5938,0.8232,0.8232l1.375,0.7861l-1.1289,2.0137c-0.7227-0.3438-1.2998-0.6465-1.7324-0.9082
		c-0.4346-0.2617-0.8232-0.5732-1.166-0.9336c-0.3457-0.3604-0.5908-0.7656-0.7383-1.2158
		c-0.1465-0.4502-0.2197-0.9785-0.2197-1.585V18.5752z"/>
		<path fill="#003E9A" d="M143.2466,32.2324l1.7461-1.7686c0.458,0.5078,1.0313,0.9258,1.7178,1.2529
		c0.6885,0.3281,1.3584,0.4912,2.0156,0.4912c0.6865,0,1.252-0.1592,1.6943-0.4785s0.6621-0.6592,0.6621-1.0195
		c0-0.7207-0.5156-1.1787-1.5469-1.376l-1.4482-0.2695c-1.6055-0.2949-2.7207-0.709-3.3408-1.2402
		c-0.623-0.5332-0.9346-1.25-0.9346-2.1504c0-1.0645,0.4229-1.9766,1.2656-2.7383s1.9775-1.1426,3.4023-1.1426
		c1.6045,0,3.1758,0.5488,4.7158,1.6455l-1.4482,1.793c-1.0498-0.8838-2.1133-1.3262-3.1943-1.3262
		c-0.5889,0-1.1016,0.1348-1.5352,0.4053c-0.4346,0.2705-0.6514,0.6348-0.6514,1.0938c0,0.6543,0.5166,1.0723,1.5479,1.252
		l2.5791,0.4922c2.0967,0.3926,3.1445,1.4492,3.1445,3.168c0,1.0156-0.4268,1.9375-1.2783,2.7637
		c-0.8506,0.8271-2.1045,1.2402-3.7568,1.2402C146.6704,34.3203,144.8853,33.625,143.2466,32.2324z"/>
	</g>
</svg>
