<svg width="24" height="24" viewBox="0 0 24 24" fill="none" xmlns="http://www.w3.org/2000/svg">
<rect width="24" height="24" fill="white" fill-opacity="0.01"/>
<path fill-rule="evenodd" clip-rule="evenodd" d="M11.9999 18C11.7347 18 11.4803 17.8947 11.2928 17.7071C11.1053 17.5196 10.9999 17.2652 10.9999 17C10.9999 16.7348 11.1053 16.4804 11.2928 16.2929C11.4803 16.1054 11.7347 16 11.9999 16C12.2651 16 12.5195 16.1054 12.707 16.2929C12.8946 16.4804 12.9999 16.7348 12.9999 17C12.9999 17.2652 12.8946 17.5196 12.707 17.7071C12.5195 17.8947 12.2651 18 11.9999 18ZM9.99992 9.00002C9.99992 9.26524 9.89456 9.51959 9.70702 9.70713C9.51949 9.89466 9.26513 10 8.99992 10C8.7347 10 8.48035 9.89466 8.29281 9.70713C8.10528 9.51959 7.99992 9.26524 7.99992 9.00002C7.99992 8.7348 8.10528 8.48045 8.29281 8.29291C8.48035 8.10538 8.7347 8.00002 8.99992 8.00002C9.26513 8.00002 9.51949 8.10538 9.70702 8.29291C9.89456 8.48045 9.99992 8.7348 9.99992 9.00002Z" fill="#42526E"/>
<path fill-rule="evenodd" clip-rule="evenodd" d="M15.8899 8.04802C15.7186 7.33275 15.3519 6.67913 14.8309 6.16002C14.3098 5.6409 13.6548 5.27671 12.9389 5.10802C12.3432 4.96502 11.7227 4.96057 11.125 5.09503C10.5273 5.22948 9.96848 5.49925 9.49143 5.88358C9.01438 6.26791 8.63185 6.75655 8.37327 7.31191C8.1147 7.86727 7.98697 8.47455 7.99992 9.08702C8.00269 9.08993 8.0057 9.09261 8.00892 9.09502L9.88692 9.11702L9.99892 9.00102C9.99918 8.4704 10.2101 7.9616 10.5853 7.58639C10.9605 7.21119 11.4693 7.00029 11.9999 7.00002C13.1029 7.00002 13.9999 7.89702 13.9999 9.00002C13.9999 10.102 13.1029 11 11.9999 11H12.0079C11.7453 11.0005 11.4934 11.1043 11.3067 11.289C11.1199 11.4737 11.0133 11.7244 11.0099 11.987V14.001C11.0099 14.2662 11.1153 14.5206 11.3028 14.7081C11.4903 14.8957 11.7447 15.001 12.0099 15.001C12.2751 15.001 12.5295 14.8957 12.717 14.7081C12.9046 14.5206 13.0099 14.2662 13.0099 14.001V13.219C13.0099 13.002 13.1549 12.82 13.3589 12.747C14.2863 12.4142 15.0578 11.7501 15.5249 10.8826C15.9919 10.0151 16.1216 9.00543 15.8889 8.04802" fill="#42526E"/>
</svg>
