<svg width="222" height="36" viewBox="0 0 222 36" fill="none" xmlns="http://www.w3.org/2000/svg">
<g clip-path="url(#clip0_101_2)">
<path d="M55.12 21.08V17.67H39.16V6.87H57.07V3.38H35.24V35.92H57.7V32.43H39.15V21.09H55.11L55.12 21.08Z" fill="white"/>
<path d="M92.49 35.91H96.22L96.18 3.37H92.96L79.68 27.01L66.22 3.37H63V35.91H66.73V11.02L78.73 31.89H80.45L92.45 10.87L92.5 35.91H92.49Z" fill="white"/>
<path d="M15.29 0L0 35.99L22.7 27.81L25.87 35.27H30.38L15.29 0ZM21.28 24.32L7.15 29.42L8.06 27.17L15.28 10.22L21.27 24.33L21.28 24.32Z" fill="white"/>
<path d="M120.44 14.5L124.82 25.53H116.03L120.44 14.5ZM118.33 10.93L107.96 35.99H111.87L114.78 28.65H126.04L128.95 35.99H133.04L122.75 10.93H118.34H118.33Z" fill="#FBCB09"/>
<path d="M135.48 35.99V10.93H144.3C146.1 10.91 147.88 11.23 149.56 11.86C151.11 12.46 152.53 13.35 153.74 14.49C156.2 16.82 157.58 20.07 157.54 23.46C157.58 26.84 156.21 30.09 153.76 32.43C152.56 33.58 151.13 34.47 149.58 35.06C147.89 35.7 146.11 36.01 144.3 35.99H135.48ZM139.25 32.63H144.38C145.63 32.64 146.87 32.41 148.04 31.95C150.27 31.06 152.05 29.31 152.97 27.1C153.44 25.96 153.68 24.73 153.67 23.5C153.68 22.25 153.44 21.01 152.95 19.85C152.03 17.64 150.26 15.89 148.03 15C146.86 14.52 145.6 14.29 144.34 14.3H139.25V32.64V32.63Z" fill="#FBCB09"/>
<path d="M195.85 10.93H192.08V35.99H195.85V10.93Z" fill="#FBCB09"/>
<path d="M200.8 35.99V10.92H204.46L218.45 29.54V10.92H222V35.98H218.66L204.35 16.83V35.99H200.8Z" fill="#FBCB09"/>
<path d="M184.23 11.37L174.44 31.88L164.47 11.38H161.5V35.99H164.74V18.87L173.02 35.99H175.7L183.92 18.6V35.99H187.17V11.37H184.23Z" fill="#FBCB09"/>
</g>
<defs>
<clipPath id="clip0_101_2">
<rect width="222" height="36" fill="white"/>
</clipPath>
</defs>
</svg>
