<?xml version="1.0" encoding="utf-8"?>
<!-- Generator: Adobe Illustrator 26.0.2, SVG Export Plug-In . SVG Version: 6.00 Build 0)  -->
<svg version="1.1" id="Layer_1" xmlns="http://www.w3.org/2000/svg" xmlns:xlink="http://www.w3.org/1999/xlink" x="0px" y="0px"
	 viewBox="0 0 16 16" style="enable-background:new 0 0 16 16;" xml:space="preserve">
<style type="text/css">
	.st0{fill:#5C6D8E;}
</style>
<g>
	<path class="st0" d="M8.2,6.5C7.6,6,6.8,5.6,5.9,5.5C7,5.1,7.8,4,7.8,2.8C7.8,1.3,6.5,0,5,0H4.8C3.3,0,2,1.3,2,2.8
		C2,4,2.7,5.1,3.9,5.5C1.7,5.8,0,7.6,0,9.8v1.7l0.9,0V9.8c0-1.9,1.6-3.4,3.5-3.4h0.9c0.8,0,1.6,0.3,2.2,0.7C7.7,6.9,8,6.7,8.2,6.5z
		 M5,4.8H4.8c-1.1,0-1.9-0.9-1.9-1.9c0-1.1,0.9-1.9,1.9-1.9H5c1.1,0,1.9,0.9,1.9,1.9C6.9,3.9,6,4.8,5,4.8z"/>
	<g>
		<path class="st0" d="M12.3,10V9.1c0-0.6-0.5-1.2-1.2-1.2C10.5,8,10,8.5,10,9.1l0,0.9H12.3z"/>
		<rect x="9.5" y="10.7" class="st0" width="3.5" height="3"/>
		<path class="st0" d="M11.2,6.4c-2.6,0-4.8,2.1-4.8,4.8c0,2.6,2.1,4.8,4.8,4.8c2.6,0,4.8-2.1,4.8-4.8C16,8.5,13.9,6.4,11.2,6.4z
			 M13.6,13.9c0,0.3-0.2,0.5-0.5,0.5H9.3c-0.3,0-0.5-0.2-0.5-0.5v-3.3C8.8,10.3,9,10,9.3,10l0,0V9.1c0-1,0.8-1.8,1.8-1.8
			S13,8.1,13,9.1V10l0,0c0.3,0,0.5,0.2,0.5,0.5V13.9z"/>
	</g>
</g>
</svg>
