<?xml version="1.0" encoding="utf-8"?>
<!-- Generator: Adobe Illustrator 26.0.2, SVG Export Plug-In . SVG Version: 6.00 Build 0)  -->
<svg version="1.1" id="Layer_1" xmlns="http://www.w3.org/2000/svg" xmlns:xlink="http://www.w3.org/1999/xlink" x="0px" y="0px"
	 viewBox="0 0 16 16" style="enable-background:new 0 0 16 16;" xml:space="preserve">
<style type="text/css">
	.st0{fill:#5C6D8E;}
</style>
<g>
	<path class="st0" d="M14.5,11.4v4.3c0,0.2-0.2,0.3-0.3,0.3H1.8c-0.2,0-0.3-0.1-0.3-0.3v-4.3c0-2.5,1.9-4.5,4.3-4.5
		C5.9,6.8,6,6.9,6.1,7l2,3.4L10,7c0.1-0.2,0.2-0.2,0.3-0.2C12.6,6.9,14.5,8.9,14.5,11.4L14.5,11.4z"/>
	<path class="st0" d="M4.7,3.3C4.7,1.5,6.2,0,8,0s3.3,1.5,3.3,3.3S9.8,6.7,8,6.7C6.2,6.7,4.7,5.2,4.7,3.3L4.7,3.3z"/>
</g>
</svg>
